<svg width="18" height="19" viewBox="0 0 18 19" fill="none" xmlns="http://www.w3.org/2000/svg">
<g clip-path="url(#clip0_913_295)">
<path d="M17.7802 17.2197L16.9725 16.412L15.675 15.1167L17.7667 13.025C17.8558 12.9358 17.9209 12.8256 17.9561 12.7047C17.9913 12.5837 17.9955 12.4557 17.9682 12.3327C17.9409 12.2097 17.8831 12.0955 17.8 12.0008C17.717 11.906 17.6114 11.8337 17.493 11.7905L10.7662 9.34999C10.4983 9.25315 10.2083 9.23462 9.93023 9.29657C9.65213 9.35852 9.39743 9.49839 9.19593 9.69981C8.99443 9.90124 8.85446 10.1559 8.7924 10.4339C8.73034 10.712 8.74876 11.002 8.8455 11.27L11.2927 17.9967C11.3357 18.1152 11.4079 18.221 11.5025 18.3042C11.5971 18.3875 11.7112 18.4455 11.8342 18.473C11.8877 18.4846 11.9423 18.4904 11.997 18.4902C12.1959 18.4902 12.3866 18.4112 12.5272 18.2705L14.6167 16.175L15.912 17.4702L16.7197 18.278C16.8612 18.4146 17.0507 18.4902 17.2473 18.4885C17.4439 18.4868 17.6321 18.4079 17.7711 18.2689C17.9102 18.1298 17.989 17.9417 17.9908 17.745C17.9925 17.5484 17.9169 17.3589 17.7802 17.2175V17.2197Z" fill="#F3F4F6"/>
<path d="M7.5 15.5C6.01664 15.5 4.56659 15.0601 3.33322 14.236C2.09985 13.4119 1.13856 12.2406 0.570899 10.8701C0.003242 9.49968 -0.145283 7.99168 0.144106 6.53683C0.433495 5.08197 1.1478 3.7456 2.19669 2.6967C3.24559 1.64781 4.58196 0.933503 6.03682 0.644114C7.49168 0.354725 8.99968 0.50325 10.3701 1.07091C11.7406 1.63856 12.9119 2.59986 13.736 3.83323C14.5601 5.0666 15 6.51664 15 8C15 8.19892 14.921 8.38968 14.7803 8.53033C14.6397 8.67099 14.4489 8.75 14.25 8.75C14.0511 8.75 13.8603 8.67099 13.7197 8.53033C13.579 8.38968 13.5 8.19892 13.5 8C13.5 6.81332 13.1481 5.65328 12.4888 4.66658C11.8295 3.67989 10.8925 2.91085 9.7961 2.45673C8.69974 2.0026 7.49334 1.88378 6.32945 2.11529C5.16557 2.3468 4.09647 2.91825 3.25735 3.75736C2.41824 4.59648 1.8468 5.66558 1.61528 6.82946C1.38377 7.99335 1.50259 9.19975 1.95672 10.2961C2.41084 11.3925 3.17988 12.3295 4.16657 12.9888C5.15327 13.6481 6.31331 14 7.5 14C7.69891 14 7.88967 14.079 8.03033 14.2197C8.17098 14.3603 8.25 14.5511 8.25 14.75C8.25 14.9489 8.17098 15.1397 8.03033 15.2803C7.88967 15.421 7.69891 15.5 7.5 15.5Z" fill="#F3F4F6"/>
<path d="M6.063 12.215C5.96444 12.2151 5.86683 12.1957 5.77575 12.158C5.09239 11.8742 4.48957 11.4262 4.02067 10.8538C3.55176 10.2814 3.23125 9.60216 3.08752 8.8763C2.94379 8.15044 2.98127 7.40033 3.19664 6.69241C3.41201 5.9845 3.79864 5.34061 4.32226 4.81778C4.84589 4.29496 5.49037 3.90932 6.19862 3.69503C6.90686 3.48074 7.65703 3.44441 8.38267 3.58925C9.10831 3.7341 9.78704 4.05565 10.3587 4.52542C10.9304 4.9952 11.3775 5.59871 11.6603 6.2825C11.6999 6.37386 11.7209 6.4722 11.7222 6.57177C11.7234 6.67135 11.7048 6.77018 11.6674 6.86248C11.63 6.95479 11.5746 7.03872 11.5045 7.1094C11.4343 7.18007 11.3508 7.23607 11.2588 7.27411C11.1667 7.31216 11.068 7.3315 10.9685 7.331C10.8689 7.3305 10.7704 7.31018 10.6787 7.27121C10.5871 7.23224 10.5041 7.17541 10.4347 7.10404C10.3652 7.03267 10.3107 6.94818 10.2743 6.8555C10.0853 6.40006 9.787 5.9982 9.40574 5.68551C9.02448 5.37281 8.57203 5.15891 8.08841 5.06273C7.60479 4.96655 7.10492 4.99107 6.63303 5.1341C6.16114 5.27713 5.73179 5.53428 5.38295 5.88278C5.03412 6.23128 4.77657 6.66039 4.63308 7.13214C4.4896 7.60389 4.46461 8.10373 4.56032 8.58744C4.65603 9.07116 4.8695 9.52382 5.18184 9.90537C5.49417 10.2869 5.89574 10.5856 6.351 10.775C6.51145 10.8414 6.64388 10.9614 6.72571 11.1146C6.80754 11.2677 6.83369 11.4445 6.79971 11.6148C6.76572 11.7851 6.6737 11.9383 6.53935 12.0483C6.405 12.1583 6.23664 12.2183 6.063 12.218V12.215Z" fill="#F3F4F6"/>
</g>
<defs>
<clipPath id="clip0_913_295">
<rect width="18" height="18" fill="white" transform="translate(0 0.5)"/>
</clipPath>
</defs>
</svg>
