<svg xmlns="http://www.w3.org/2000/svg" width="37" height="44" viewBox="0 0 37 44" fill="none">
<g style="mix-blend-mode:exclusion" opacity="0.91">
<path d="M18.4075 31.697C19.2133 31.697 20.0112 31.5379 20.7556 31.2288C21.5001 30.9196 22.1765 30.4665 22.7462 29.8953C23.316 29.3241 23.768 28.6459 24.0763 27.8996C24.3847 27.1533 24.5434 26.3533 24.5434 25.5455C24.5434 24.7377 24.3847 23.9378 24.0763 23.1914C23.768 22.4451 23.316 21.767 22.7462 21.1957C22.1765 20.6245 21.5001 20.1714 20.7556 19.8623C20.0112 19.5531 19.2133 19.394 18.4075 19.394V25.5455V31.697Z" fill="white" shape-rendering="crispEdges"/>
<path d="M18.4075 13.2425C17.6018 13.2425 16.8039 13.4016 16.0594 13.7107C15.315 14.0199 14.6386 14.473 14.0688 15.0442C13.4991 15.6154 13.0471 16.2936 12.7388 17.0399C12.4304 17.7863 12.2717 18.5862 12.2717 19.394C12.2717 20.2018 12.4304 21.0017 12.7388 21.7481C13.0471 22.4944 13.4991 23.1726 14.0688 23.7438C14.6386 24.315 15.315 24.7681 16.0594 25.0773C16.8039 25.3864 17.6018 25.5455 18.4075 25.5455V19.394V13.2425Z" fill="white" shape-rendering="geometricPrecision"/>
<path d="M18.4075 0.939453C18.3902 0.939453 18.3728 0.939478 18.3555 0.939527C19.9998 0.951109 21.3294 2.3237 21.3294 4.01521C21.3294 5.68936 20.027 7.0511 18.406 7.09011C18.4065 7.09011 18.407 7.09011 18.4075 7.09011L18.4045 7.09014C18.3812 7.09069 18.3579 7.09097 18.3345 7.09097L18.4045 7.09014C18.405 7.09013 18.4055 7.09012 18.406 7.09011C16.7949 7.09031 15.1995 7.40856 13.711 8.02669C12.2221 8.64501 10.8691 9.55131 9.72953 10.6938C8.58992 11.8364 7.68593 13.1927 7.06918 14.6855C6.45243 16.1783 6.13499 17.7782 6.13499 19.394C6.13499 21.0098 6.45243 22.6097 7.06918 24.1025C7.68593 25.5953 8.58992 26.9516 9.72953 28.0942C10.8691 29.2367 12.2221 30.143 13.711 30.7613C15.2 31.3796 16.7959 31.6979 18.4075 31.6979V37.8485C15.9902 37.8485 13.5966 37.3712 11.3633 36.4438C9.12997 35.5163 7.10074 34.157 5.39144 32.4433C3.68214 30.7297 2.32626 28.6953 1.40119 26.4562C0.476125 24.2172 0 21.8175 0 19.394C0 16.9705 0.476125 14.5708 1.40119 12.3317C2.32626 10.0927 3.68214 8.05833 5.39144 6.34466C7.10074 4.631 9.12997 3.27165 11.3633 2.34422C13.5805 1.42345 15.9559 0.946332 18.3555 0.939527C18.3485 0.939478 18.3415 0.939453 18.3345 0.939453H18.4075Z" fill="white" fill-opacity="0.6" shape-rendering="geometricPrecision"/>
<path d="M18.4075 0.939453C18.3902 0.939453 18.3728 0.939478 18.3555 0.939527C19.9998 0.951109 21.3294 2.3237 21.3294 4.01521C21.3294 5.68936 20.027 7.0511 18.406 7.09011C18.4065 7.09011 18.407 7.09011 18.4075 7.09011L18.4045 7.09014C18.3812 7.09069 18.3579 7.09097 18.3345 7.09097L18.4045 7.09014C18.405 7.09013 18.4055 7.09012 18.406 7.09011C16.7949 7.09031 15.1995 7.40856 13.711 8.02669C12.2221 8.64501 10.8691 9.55131 9.72953 10.6938C8.58992 11.8364 7.68593 13.1927 7.06918 14.6855C6.45243 16.1783 6.13499 17.7782 6.13499 19.394C6.13499 21.0098 6.45243 22.6097 7.06918 24.1025C7.68593 25.5953 8.58992 26.9516 9.72953 28.0942C10.8691 29.2367 12.2221 30.143 13.711 30.7613C15.2 31.3796 16.7959 31.6979 18.4075 31.6979V37.8485C15.9902 37.8485 13.5966 37.3712 11.3633 36.4438C9.12997 35.5163 7.10074 34.157 5.39144 32.4433C3.68214 30.7297 2.32626 28.6953 1.40119 26.4562C0.476125 24.2172 0 21.8175 0 19.394C0 16.9705 0.476125 14.5708 1.40119 12.3317C2.32626 10.0927 3.68214 8.05833 5.39144 6.34466C7.10074 4.631 9.12997 3.27165 11.3633 2.34422C13.5805 1.42345 15.9559 0.946332 18.3555 0.939527C18.3485 0.939478 18.3415 0.939453 18.3345 0.939453H18.4075Z" fill="url(#paint0_linear_1402_638)" fill-opacity="0.2" shape-rendering="geometricPrecision"/>
<path d="M25.4518 42.5953C23.2185 43.5227 20.8248 44.0001 18.4075 44.0001H18.3345C16.6805 44.0001 15.3396 42.623 15.3396 40.9243C15.3396 39.2256 16.6805 37.8485 18.3345 37.8485L18.4075 37.8494C20.0192 37.8494 21.6151 37.5312 23.104 36.9128C24.593 36.2945 25.9459 35.3882 27.0855 34.2457C28.2251 33.1032 29.1291 31.7468 29.7459 30.254C30.3626 28.7612 30.6801 27.1613 30.6801 25.5455C30.6801 23.9297 30.3626 22.3298 29.7459 20.837C29.1291 19.3442 28.2251 17.9879 27.0855 16.8453C25.9459 15.7028 24.593 14.7965 23.104 14.1782C21.6151 13.5599 20.0192 13.2416 18.4075 13.2416V7.09097C20.8248 7.09097 23.2185 7.56831 25.4518 8.49574C27.6851 9.42316 29.7143 10.7825 31.4236 12.4962C33.1329 14.2098 34.4888 16.2443 35.4139 18.4833C36.3389 20.7223 36.8151 23.122 36.8151 25.5455C36.8151 27.969 36.3389 30.3688 35.4139 32.6078C34.4888 34.8468 33.1329 36.8812 31.4236 38.5948C29.7143 40.3085 27.6851 41.6679 25.4518 42.5953Z" fill="white" fill-opacity="0.6" shape-rendering="geometricPrecision"/>
<path d="M25.4518 42.5953C23.2185 43.5227 20.8248 44.0001 18.4075 44.0001H18.3345C16.6805 44.0001 15.3396 42.623 15.3396 40.9243C15.3396 39.2256 16.6805 37.8485 18.3345 37.8485L18.4075 37.8494C20.0192 37.8494 21.6151 37.5312 23.104 36.9128C24.593 36.2945 25.9459 35.3882 27.0855 34.2457C28.2251 33.1032 29.1291 31.7468 29.7459 30.254C30.3626 28.7612 30.6801 27.1613 30.6801 25.5455C30.6801 23.9297 30.3626 22.3298 29.7459 20.837C29.1291 19.3442 28.2251 17.9879 27.0855 16.8453C25.9459 15.7028 24.593 14.7965 23.104 14.1782C21.6151 13.5599 20.0192 13.2416 18.4075 13.2416V7.09097C20.8248 7.09097 23.2185 7.56831 25.4518 8.49574C27.6851 9.42316 29.7143 10.7825 31.4236 12.4962C33.1329 14.2098 34.4888 16.2443 35.4139 18.4833C36.3389 20.7223 36.8151 23.122 36.8151 25.5455C36.8151 27.969 36.3389 30.3688 35.4139 32.6078C34.4888 34.8468 33.1329 36.8812 31.4236 38.5948C29.7143 40.3085 27.6851 41.6679 25.4518 42.5953Z" fill="url(#paint1_linear_1402_638)" fill-opacity="0.2" shape-rendering="geometricPrecision"/>
<path d="M23.1037 36.912C21.6148 37.5303 20.0191 37.8485 18.4075 37.8485H18.3345C16.6805 37.8485 15.3396 36.4715 15.3396 34.7728C15.3396 33.0741 16.6805 31.697 18.3345 31.697L18.4075 31.6979C19.2134 31.6979 20.0114 31.5389 20.756 31.2297C21.5005 30.9205 22.1771 30.4673 22.7469 29.896C23.3168 29.3247 23.7688 28.6464 24.0772 27.9C24.3856 27.1535 24.5443 26.3535 24.5443 25.5455C24.5443 24.7376 24.3856 23.9375 24.0772 23.1911C23.7688 22.4446 23.3168 21.7664 22.7469 21.1951C22.1771 20.6237 21.5005 20.1706 20.756 19.8614C20.0114 19.5522 19.2134 19.393 18.4075 19.393V13.2425C20.0191 13.2425 21.6148 13.5607 23.1037 14.179C24.5926 14.7973 25.9454 15.7035 27.0849 16.846C28.2245 17.9884 29.1284 19.3447 29.7451 20.8373C30.3618 22.33 30.6792 23.9299 30.6792 25.5455C30.6792 27.1612 30.3618 28.761 29.7451 30.2537C29.1284 31.7463 28.2245 33.1026 27.0849 34.2451C25.9454 35.3875 24.5926 36.2937 23.1037 36.912Z" fill="#E3E3E3" shape-rendering="geometricPrecision"/>
<path d="M23.1037 36.912C21.6148 37.5303 20.0191 37.8485 18.4075 37.8485H18.3345C16.6805 37.8485 15.3396 36.4715 15.3396 34.7728C15.3396 33.0741 16.6805 31.697 18.3345 31.697L18.4075 31.6979C19.2134 31.6979 20.0114 31.5389 20.756 31.2297C21.5005 30.9205 22.1771 30.4673 22.7469 29.896C23.3168 29.3247 23.7688 28.6464 24.0772 27.9C24.3856 27.1535 24.5443 26.3535 24.5443 25.5455C24.5443 24.7376 24.3856 23.9375 24.0772 23.1911C23.7688 22.4446 23.3168 21.7664 22.7469 21.1951C22.1771 20.6237 21.5005 20.1706 20.756 19.8614C20.0114 19.5522 19.2134 19.393 18.4075 19.393V13.2425C20.0191 13.2425 21.6148 13.5607 23.1037 14.179C24.5926 14.7973 25.9454 15.7035 27.0849 16.846C28.2245 17.9884 29.1284 19.3447 29.7451 20.8373C30.3618 22.33 30.6792 23.9299 30.6792 25.5455C30.6792 27.1612 30.3618 28.761 29.7451 30.2537C29.1284 31.7463 28.2245 33.1026 27.0849 34.2451C25.9454 35.3875 24.5926 36.2937 23.1037 36.912Z" fill="url(#paint2_linear_1402_638)" fill-opacity="0.2" shape-rendering="geometricPrecision"/>
<path d="M13.7114 8.02748C15.2002 7.4092 16.796 7.09097 18.4075 7.09097C19.1825 7.09097 19.9256 7.41502 20.4736 7.99184C21.0215 8.56865 21.3294 9.35098 21.3294 10.1667C21.3294 10.9825 21.0215 11.7648 20.4736 12.3416C19.9256 12.9184 19.1825 13.2425 18.4075 13.2425L18.4075 13.2416C17.6016 13.2416 16.8036 13.4007 16.0591 13.7099C15.3145 14.019 14.638 14.4722 14.0682 15.0435C13.4983 15.6149 13.0463 16.2931 12.7379 17.0395C12.4295 17.786 12.2707 18.586 12.2707 19.394C12.2707 20.202 12.4295 21.002 12.7379 21.7484C13.0463 22.4949 13.4983 23.1731 14.0682 23.7445C14.638 24.3158 15.3145 24.769 16.0591 25.0781C16.8036 25.3873 17.6016 25.5465 18.4075 25.5465V31.697C16.796 31.697 15.2002 31.3788 13.7114 30.7605C12.2225 30.1422 10.8697 29.236 9.73014 28.0936C8.59061 26.9511 7.68668 25.5948 7.06997 24.1022C6.45326 22.6095 6.13584 21.0097 6.13584 19.394C6.13584 17.7783 6.45326 16.1785 7.06997 14.6858C7.68668 13.1932 8.59061 11.8369 9.73014 10.6944C10.8697 9.552 12.2225 8.64577 13.7114 8.02748Z" fill="#E3E3E3" shape-rendering="geometricPrecision"/>
<path d="M13.7114 8.02748C15.2002 7.4092 16.796 7.09097 18.4075 7.09097C19.1825 7.09097 19.9256 7.41502 20.4736 7.99184C21.0215 8.56865 21.3294 9.35098 21.3294 10.1667C21.3294 10.9825 21.0215 11.7648 20.4736 12.3416C19.9256 12.9184 19.1825 13.2425 18.4075 13.2425L18.4075 13.2416C17.6016 13.2416 16.8036 13.4007 16.0591 13.7099C15.3145 14.019 14.638 14.4722 14.0682 15.0435C13.4983 15.6149 13.0463 16.2931 12.7379 17.0395C12.4295 17.786 12.2707 18.586 12.2707 19.394C12.2707 20.202 12.4295 21.002 12.7379 21.7484C13.0463 22.4949 13.4983 23.1731 14.0682 23.7445C14.638 24.3158 15.3145 24.769 16.0591 25.0781C16.8036 25.3873 17.6016 25.5465 18.4075 25.5465V31.697C16.796 31.697 15.2002 31.3788 13.7114 30.7605C12.2225 30.1422 10.8697 29.236 9.73014 28.0936C8.59061 26.9511 7.68668 25.5948 7.06997 24.1022C6.45326 22.6095 6.13584 21.0097 6.13584 19.394C6.13584 17.7783 6.45326 16.1785 7.06997 14.6858C7.68668 13.1932 8.59061 11.8369 9.73014 10.6944C10.8697 9.552 12.2225 8.64577 13.7114 8.02748Z" fill="url(#paint3_linear_1402_638)" fill-opacity="0.2" shape-rendering="geometricPrecision"/>
</g>
<defs>
<linearGradient id="paint0_linear_1402_638" x1="32.1501" y1="40.6742" x2="26.8048" y2="11.6374" gradientUnits="userSpaceOnUse">
<stop/>
<stop offset="1" stop-opacity="0"/>
</linearGradient>
<linearGradient id="paint1_linear_1402_638" x1="8.64027" y1="5.40305" x2="30.2426" y2="25.1839" gradientUnits="userSpaceOnUse">
<stop/>
<stop offset="1" stop-opacity="0"/>
</linearGradient>
<linearGradient id="paint2_linear_1402_638" x1="1.92841" y1="5.92818" x2="22.6615" y2="25.4386" gradientUnits="userSpaceOnUse">
<stop/>
<stop offset="0.344195" stop-color="#585858"/>
<stop offset="1" stop-color="white"/>
</linearGradient>
<linearGradient id="paint3_linear_1402_638" x1="18.4075" y1="28.5463" x2="10.9829" y2="15.4262" gradientUnits="userSpaceOnUse">
<stop/>
<stop offset="0.344195" stop-color="#585858"/>
<stop offset="1" stop-color="white"/>
</linearGradient>
</defs>
</svg>