<svg width="48" height="48" viewBox="0 0 48 48" fill="none" xmlns="http://www.w3.org/2000/svg">
<path d="M8.45455 37.1316H14.1818V23.2225L6 17.0861V34.677C6 36.0332 7.09841 37.1316 8.45455 37.1316Z" fill="#4285F4"/>
<path d="M33.8184 37.1316H39.5456C40.9018 37.1316 42.0002 36.0332 42.0002 34.677V17.0861L33.8184 23.2225V37.1316Z" fill="#34A853"/>
<path d="M33.8184 12.5862V23.2225L42.0002 17.0862V13.8134C42.0002 10.78 38.5372 9.04752 36.1093 10.868L33.8184 12.5862Z" fill="#FBBC04"/>
<path fill-rule="evenodd" clip-rule="evenodd" d="M14.1816 23.2225V12.5861L23.9998 19.9498L33.818 12.5861V23.2225L23.9998 30.5861L14.1816 23.2225Z" fill="#EA4335"/>
<path d="M6 13.8134V17.0862L14.1818 23.2225V12.5862L11.8909 10.868C9.46296 9.04752 6 10.78 6 13.8134Z" fill="#C5221F"/>
</svg>
