{
    "asset": {
        "generator": "FBX2glTF v0.9.7",
        "version": "2.0"
    },
    "scene": 0,
    "buffers": [
        {
            "byteLength": 1476400,
            "uri": "data:application/octet-stream;base64,"
        }
    ],
    "bufferViews": [
        {
            "buffer": 0,
            "byteLength": 274128,
            "byteOffset": 0,
            "target": 34963
        },
        {
            "buffer": 0,
            "byteLength": 373560,
            "byteOffset": 274128,
            "target": 34962
        },
        {
            "buffer": 0,
            "byteLength": 373560,
            "byteOffset": 647688,
            "target": 34962
        },
        {
            "buffer": 0,
            "byteLength": 249040,
            "byteOffset": 1021248,
            "target": 34962
        },
        {
            "buffer": 0,
            "byteLength": 15600,
            "byteOffset": 1270288,
            "target": 34963
        },
        {
            "buffer": 0,
            "byteLength": 49380,
            "byteOffset": 1285888,
            "target": 34962
        },
        {
            "buffer": 0,
            "byteLength": 49380,
            "byteOffset": 1335268,
            "target": 34962
        },
        {
            "buffer": 0,
            "byteLength": 32920,
            "byteOffset": 1384648,
            "target": 34962
        },
        {
            "buffer": 0,
            "byteLength": 5496,
            "byteOffset": 1417568,
            "target": 34963
        },
        {
            "buffer": 0,
            "byteLength": 16584,
            "byteOffset": 1423064,
            "target": 34962
        },
        {
            "buffer": 0,
            "byteLength": 16584,
            "byteOffset": 1439648,
            "target": 34962
        },
        {
            "buffer": 0,
            "byteLength": 11056,
            "byteOffset": 1456232,
            "target": 34962
        },
        {
            "buffer": 0,
            "byteLength": 1398,
            "byteOffset": 1467288,
            "target": 34963
        },
        {
            "buffer": 0,
            "byteLength": 2892,
            "byteOffset": 1468688,
            "target": 34962
        },
        {
            "buffer": 0,
            "byteLength": 2892,
            "byteOffset": 1471580,
            "target": 34962
        },
        {
            "buffer": 0,
            "byteLength": 1928,
            "byteOffset": 1474472,
            "target": 34962
        }
    ],
    "scenes": [
        {
            "name": "Root Scene",
            "nodes": [
                0
            ]
        }
    ],
    "accessors": [
        {
            "componentType": 5123,
            "type": "SCALAR",
            "count": 137064,
            "bufferView": 0,
            "byteOffset": 0
        },
        {
            "componentType": 5126,
            "type": "VEC3",
            "count": 31130,
            "bufferView": 1,
            "byteOffset": 0,
            "min": [
                -0.000586807262152433,
                -0.000605085922870785,
                -4.50000006821938e-05
            ],
            "max": [
                0.000579757732339203,
                0.00080373726086691,
                4.50000006821938e-05
            ]
        },
        {
            "componentType": 5126,
            "type": "VEC3",
            "count": 31130,
            "bufferView": 2,
            "byteOffset": 0
        },
        {
            "componentType": 5126,
            "type": "VEC2",
            "count": 31130,
            "bufferView": 3,
            "byteOffset": 0
        },
        {
            "componentType": 5123,
            "type": "SCALAR",
            "count": 7800,
            "bufferView": 4,
            "byteOffset": 0
        },
        {
            "componentType": 5126,
            "type": "VEC3",
            "count": 4115,
            "bufferView": 5,
            "byteOffset": 0,
            "min": [
                0.000381123856641352,
                0.000519323046319187,
                -2.99999992421363e-05
            ],
            "max": [
                0.00100295501761138,
                0.00119921565055847,
                2.99999992421363e-05
            ]
        },
        {
            "componentType": 5126,
            "type": "VEC3",
            "count": 4115,
            "bufferView": 6,
            "byteOffset": 0
        },
        {
            "componentType": 5126,
            "type": "VEC2",
            "count": 4115,
            "bufferView": 7,
            "byteOffset": 0
        },
        {
            "componentType": 5123,
            "type": "SCALAR",
            "count": 2748,
            "bufferView": 8,
            "byteOffset": 0
        },
        {
            "componentType": 5126,
            "type": "VEC3",
            "count": 1382,
            "bufferView": 9,
            "byteOffset": 0,
            "min": [
                0.000555989157874137,
                0.000411965826060623,
                -2.99999992421363e-05
            ],
            "max": [
                0.00106515432707965,
                0.00106269947718829,
                2.99999992421363e-05
            ]
        },
        {
            "componentType": 5126,
            "type": "VEC3",
            "count": 1382,
            "bufferView": 10,
            "byteOffset": 0
        },
        {
            "componentType": 5126,
            "type": "VEC2",
            "count": 1382,
            "bufferView": 11,
            "byteOffset": 0
        },
        {
            "componentType": 5123,
            "type": "SCALAR",
            "count": 699,
            "bufferView": 12,
            "byteOffset": 0
        },
        {
            "componentType": 5126,
            "type": "VEC3",
            "count": 241,
            "bufferView": 13,
            "byteOffset": 0,
            "min": [
                0.00053058861522004,
                6.49419380351901e-05,
                0.0
            ],
            "max": [
                0.000894662691280246,
                0.000369640591088682,
                0.0
            ]
        },
        {
            "componentType": 5126,
            "type": "VEC3",
            "count": 241,
            "bufferView": 14,
            "byteOffset": 0
        },
        {
            "componentType": 5126,
            "type": "VEC2",
            "count": 241,
            "bufferView": 15,
            "byteOffset": 0
        }
    ],
    "samplers": [
        {}
    ],
    "materials": [
        {
            "name": "SVGMat.001",
            "alphaMode": "OPAQUE",
            "extras": {
                "fromFBX": {
                    "shadingModel": "Phong",
                    "isTruePBR": false
                }
            },
            "pbrMetallicRoughness": {
                "baseColorFactor": [
                    0.0,
                    0.0,
                    0.0318960323929787,
                    1.0
                ],
                "metallicFactor": 0.400000005960464,
                "roughnessFactor": 0.229415729641914
            }
        },
        {
            "name": "SVGMat.029",
            "alphaMode": "OPAQUE",
            "extras": {
                "fromFBX": {
                    "shadingModel": "Phong",
                    "isTruePBR": false
                }
            },
            "pbrMetallicRoughness": {
                "baseColorFactor": [
                    0.982250571250916,
                    0.65140563249588,
                    0.051269456744194,
                    1.0
                ],
                "metallicFactor": 0.400000005960464,
                "roughnessFactor": 0.229415729641914
            }
        },
        {
            "name": "SVGMat.030",
            "alphaMode": "OPAQUE",
            "extras": {
                "fromFBX": {
                    "shadingModel": "Phong",
                    "isTruePBR": false
                }
            },
            "pbrMetallicRoughness": {
                "baseColorFactor": [
                    0.879622399806976,
                    0.552011430263519,
                    0.0382043719291687,
                    1.0
                ],
                "metallicFactor": 0.400000005960464,
                "roughnessFactor": 0.229415729641914
            }
        },
        {
            "name": "SVGMat.024",
            "alphaMode": "OPAQUE",
            "extras": {
                "fromFBX": {
                    "shadingModel": "Phong",
                    "isTruePBR": false
                }
            },
            "pbrMetallicRoughness": {
                "baseColorFactor": [
                    0.00367650738917291,
                    0.0648032650351524,
                    0.177888423204422,
                    1.0
                ],
                "metallicFactor": 0.400000005960464,
                "roughnessFactor": 0.229415729641914
            }
        }
    ],
    "meshes": [
        {
            "name": "path137",
            "primitives": [
                {
                    "material": 0,
                    "mode": 4,
                    "attributes": {
                        "NORMAL": 2,
                        "POSITION": 1,
                        "TEXCOORD_0": 3
                    },
                    "indices": 0
                }
            ]
        },
        {
            "name": "path149",
            "primitives": [
                {
                    "material": 1,
                    "mode": 4,
                    "attributes": {
                        "NORMAL": 6,
                        "POSITION": 5,
                        "TEXCOORD_0": 7
                    },
                    "indices": 4
                }
            ]
        },
        {
            "name": "path147",
            "primitives": [
                {
                    "material": 2,
                    "mode": 4,
                    "attributes": {
                        "NORMAL": 10,
                        "POSITION": 9,
                        "TEXCOORD_0": 11
                    },
                    "indices": 8
                }
            ]
        },
        {
            "name": "path141",
            "primitives": [
                {
                    "material": 3,
                    "mode": 4,
                    "attributes": {
                        "NORMAL": 14,
                        "POSITION": 13,
                        "TEXCOORD_0": 15
                    },
                    "indices": 12
                }
            ]
        }
    ],
    "nodes": [
        {
            "name": "RootNode",
            "translation": [
                0.0,
                0.0,
                0.0
            ],
            "rotation": [
                0.0,
                0.0,
                0.0,
                1.0
            ],
            "scale": [
                1.0,
                1.0,
                1.0
            ],
            "children": [
                1
            ]
        },
        {
            "name": "path137",
            "translation": [
                0.0,
                0.0,
                3.24347695368488e-07
            ],
            "rotation": [
                -1.71129147416132e-15,
                1.0,
                -2.18556959197258e-08,
                -7.54979012640433e-08
            ],
            "scale": [
                8951.1826171875,
                8951.181640625,
                8951.181640625
            ],
            "children": [
                2,
                3,
                4
            ],
            "mesh": 0
        },
        {
            "name": "path149",
            "translation": [
                -0.000726028636563569,
                -0.000623092753812671,
                -4.88498128188091e-17
            ],
            "rotation": [
                5.96046447753906e-08,
                1.19209289550781e-07,
                -1.04739359343292e-14,
                1.0
            ],
            "scale": [
                1.00000035762787,
                1.00000011920929,
                1.00000011920929
            ],
            "mesh": 1
        },
        {
            "name": "path147",
            "translation": [
                -0.000726028636563569,
                -0.000623092753812671,
                -4.88498128188091e-17
            ],
            "rotation": [
                5.96046447753906e-08,
                1.19209289550781e-07,
                -1.04739359343292e-14,
                1.0
            ],
            "scale": [
                1.00000035762787,
                1.00000011920929,
                1.00000011920929
            ],
            "mesh": 2
        },
        {
            "name": "path141",
            "translation": [
                -0.000726028636563569,
                -0.000623092753812671,
                -4.88498128188091e-17
            ],
            "rotation": [
                5.96046447753906e-08,
                1.19209289550781e-07,
                -1.04739359343292e-14,
                1.0
            ],
            "scale": [
                1.00000035762787,
                1.00000011920929,
                1.00000011920929
            ],
            "mesh": 3
        }
    ]
}