{
    "asset": {
        "generator": "FBX2glTF v0.9.7",
        "version": "2.0"
    },
    "scene": 0,
    "buffers": [
        {
            "byteLength": 858776,
            "uri": "data:application/octet-stream;base64,"
        }
    ],
    "bufferViews": [
        {
            "buffer": 0,
            "byteLength": 133152,
            "byteOffset": 0,
            "target": 34963
        },
        {
            "buffer": 0,
            "byteLength": 180864,
            "byteOffset": 133152,
            "target": 34962
        },
        {
            "buffer": 0,
            "byteLength": 180864,
            "byteOffset": 314016,
            "target": 34962
        },
        {
            "buffer": 0,
            "byteLength": 120576,
            "byteOffset": 494880,
            "target": 34962
        },
        {
            "buffer": 0,
            "byteLength": 9504,
            "byteOffset": 615456,
            "target": 34963
        },
        {
            "buffer": 0,
            "byteLength": 31296,
            "byteOffset": 624960,
            "target": 34962
        },
        {
            "buffer": 0,
            "byteLength": 31296,
            "byteOffset": 656256,
            "target": 34962
        },
        {
            "buffer": 0,
            "byteLength": 20864,
            "byteOffset": 687552,
            "target": 34962
        },
        {
            "buffer": 0,
            "byteLength": 15768,
            "byteOffset": 708416,
            "target": 34963
        },
        {
            "buffer": 0,
            "byteLength": 50472,
            "byteOffset": 724184,
            "target": 34962
        },
        {
            "buffer": 0,
            "byteLength": 50472,
            "byteOffset": 774656,
            "target": 34962
        },
        {
            "buffer": 0,
            "byteLength": 33648,
            "byteOffset": 825128,
            "target": 34962
        }
    ],
    "scenes": [
        {
            "name": "Root Scene",
            "nodes": [
                0
            ]
        }
    ],
    "accessors": [
        {
            "componentType": 5123,
            "type": "SCALAR",
            "count": 66576,
            "bufferView": 0,
            "byteOffset": 0
        },
        {
            "componentType": 5126,
            "type": "VEC3",
            "count": 15072,
            "bufferView": 1,
            "byteOffset": 0,
            "min": [
                -0.00051797233754769,
                -0.000404193095164374,
                -3.5000000934815e-05
            ],
            "max": [
                0.000722511322237551,
                0.000384437968023121,
                3.5000000934815e-05
            ]
        },
        {
            "componentType": 5126,
            "type": "VEC3",
            "count": 15072,
            "bufferView": 2,
            "byteOffset": 0
        },
        {
            "componentType": 5126,
            "type": "VEC2",
            "count": 15072,
            "bufferView": 3,
            "byteOffset": 0
        },
        {
            "componentType": 5123,
            "type": "SCALAR",
            "count": 4752,
            "bufferView": 4,
            "byteOffset": 0
        },
        {
            "componentType": 5126,
            "type": "VEC3",
            "count": 2608,
            "bufferView": 5,
            "byteOffset": 0,
            "min": [
                -0.000457996036857367,
                -0.000248169904807582,
                -2.00000013137469e-05
            ],
            "max": [
                0.000590299780014902,
                0.000261375680565834,
                2.00000013137469e-05
            ]
        },
        {
            "componentType": 5126,
            "type": "VEC3",
            "count": 2608,
            "bufferView": 6,
            "byteOffset": 0
        },
        {
            "componentType": 5126,
            "type": "VEC2",
            "count": 2608,
            "bufferView": 7,
            "byteOffset": 0
        },
        {
            "componentType": 5123,
            "type": "SCALAR",
            "count": 7884,
            "bufferView": 8,
            "byteOffset": 0
        },
        {
            "componentType": 5126,
            "type": "VEC3",
            "count": 4206,
            "bufferView": 9,
            "byteOffset": 0,
            "min": [
                -0.000444582314230502,
                -0.000251564953941852,
                -2.00000013137469e-05
            ],
            "max": [
                0.000625695509370416,
                0.000308679474983364,
                2.00000013137469e-05
            ]
        },
        {
            "componentType": 5126,
            "type": "VEC3",
            "count": 4206,
            "bufferView": 10,
            "byteOffset": 0
        },
        {
            "componentType": 5126,
            "type": "VEC2",
            "count": 4206,
            "bufferView": 11,
            "byteOffset": 0
        }
    ],
    "samplers": [
        {}
    ],
    "materials": [
        {
            "name": "SVGMat.035",
            "alphaMode": "OPAQUE",
            "extras": {
                "fromFBX": {
                    "shadingModel": "Phong",
                    "isTruePBR": false
                }
            },
            "pbrMetallicRoughness": {
                "baseColorFactor": [
                    0.0,
                    0.0,
                    0.0318960323929787,
                    1.0
                ],
                "metallicFactor": 0.400000005960464,
                "roughnessFactor": 0.229415729641914
            }
        },
        {
            "name": "SVGMat.004",
            "alphaMode": "OPAQUE",
            "extras": {
                "fromFBX": {
                    "shadingModel": "Phong",
                    "isTruePBR": false
                }
            },
            "pbrMetallicRoughness": {
                "baseColorFactor": [
                    0.0612460523843765,
                    0.467783808708191,
                    0.1529261469841,
                    1.0
                ],
                "metallicFactor": 0.400000005960464,
                "roughnessFactor": 0.229415729641914
            }
        },
        {
            "name": "SVGMat.006",
            "alphaMode": "OPAQUE",
            "extras": {
                "fromFBX": {
                    "shadingModel": "Phong",
                    "isTruePBR": false
                }
            },
            "pbrMetallicRoughness": {
                "baseColorFactor": [
                    0.00913405884057283,
                    0.246201321482658,
                    0.181164249777794,
                    1.0
                ],
                "metallicFactor": 0.400000005960464,
                "roughnessFactor": 0.229415729641914
            }
        }
    ],
    "meshes": [
        {
            "name": "path263",
            "primitives": [
                {
                    "material": 0,
                    "mode": 4,
                    "attributes": {
                        "NORMAL": 2,
                        "POSITION": 1,
                        "TEXCOORD_0": 3
                    },
                    "indices": 0
                }
            ]
        },
        {
            "name": "path271",
            "primitives": [
                {
                    "material": 1,
                    "mode": 4,
                    "attributes": {
                        "NORMAL": 6,
                        "POSITION": 5,
                        "TEXCOORD_0": 7
                    },
                    "indices": 4
                }
            ]
        },
        {
            "name": "path267",
            "primitives": [
                {
                    "material": 2,
                    "mode": 4,
                    "attributes": {
                        "NORMAL": 10,
                        "POSITION": 9,
                        "TEXCOORD_0": 11
                    },
                    "indices": 8
                }
            ]
        }
    ],
    "nodes": [
        {
            "name": "RootNode",
            "translation": [
                0.0,
                0.0,
                0.0
            ],
            "rotation": [
                0.0,
                0.0,
                0.0,
                1.0
            ],
            "scale": [
                1.0,
                1.0,
                1.0
            ],
            "children": [
                1
            ]
        },
        {
            "name": "path263",
            "translation": [
                0.0,
                0.0,
                0.0
            ],
            "rotation": [
                -1.71129126240308e-15,
                1.0,
                -2.18556923670121e-08,
                -7.54979012640433e-08
            ],
            "scale": [
                8207.51953125,
                8207.5205078125,
                8207.5205078125
            ],
            "children": [
                2,
                3
            ],
            "mesh": 0
        },
        {
            "name": "path271",
            "translation": [
                4.03719604946673e-05,
                4.18468225689139e-05,
                -6.52119400146312e-11
            ],
            "rotation": [
                5.96046589862453e-08,
                1.19209303761636e-07,
                -1.04739342402633e-14,
                1.0
            ],
            "scale": [
                1.0,
                1.0,
                1.0
            ],
            "mesh": 1
        },
        {
            "name": "path267",
            "translation": [
                4.62828666059067e-06,
                -3.57143335349974e-06,
                -6.21042592352516e-11
            ],
            "rotation": [
                5.96046589862453e-08,
                1.19209303761636e-07,
                -1.04739342402633e-14,
                1.0
            ],
            "scale": [
                1.0,
                1.0,
                1.0
            ],
            "mesh": 2
        }
    ]
}