<svg width="36" height="42" viewBox="0 0 36 42" fill="none" xmlns="http://www.w3.org/2000/svg">
<path d="M18 29.3571C18.7879 29.3571 19.5681 29.2053 20.2961 28.9102C21.0241 28.6151 21.6855 28.1827 22.2426 27.6374C22.7998 27.0922 23.2418 26.445 23.5433 25.7326C23.8448 25.0203 24 24.2568 24 23.4857C24 22.7147 23.8448 21.9512 23.5433 21.2388C23.2418 20.5265 22.7998 19.8792 22.2426 19.334C21.6855 18.7888 21.0241 18.3563 20.2961 18.0612C19.5681 17.7662 18.7879 17.6143 18 17.6143V23.4857V29.3571Z" fill="white"/>
<path d="M18 11.7429C17.2121 11.7429 16.4319 11.8947 15.7039 12.1898C14.9759 12.4849 14.3145 12.9173 13.7574 13.4626C13.2002 14.0078 12.7583 14.655 12.4567 15.3674C12.1552 16.0797 12 16.8432 12 17.6143C12 18.3853 12.1552 19.1488 12.4567 19.8612C12.7583 20.5735 13.2002 21.2208 13.7574 21.766C14.3145 22.3112 14.9759 22.7437 15.7039 23.0388C16.4319 23.3338 17.2121 23.4857 18 23.4857V17.6143V11.7429Z" fill="white"/>
<path d="M18 0C17.983 0 17.9661 2.3495e-05 17.9491 7.04754e-05C19.557 0.0111249 20.8571 1.32122 20.8571 2.93571C20.8571 4.53364 19.5836 5.83338 17.9985 5.87061C17.999 5.87061 17.9995 5.87061 18 5.87061L17.997 5.87064C17.9743 5.87117 17.9515 5.87143 17.9286 5.87143L17.997 5.87064C17.9975 5.87063 17.998 5.87062 17.9985 5.87061C16.423 5.8708 14.863 6.17456 13.4075 6.76454C11.9515 7.35472 10.6285 8.21975 9.51413 9.31025C8.39975 10.4008 7.51577 11.6954 6.91267 13.1202C6.30957 14.545 5.99916 16.0721 5.99916 17.6143C5.99916 19.1565 6.30957 20.6836 6.91267 22.1084C7.51577 23.5332 8.39975 24.8278 9.51413 25.9183C10.6285 27.0088 11.9515 27.8739 13.4075 28.464C14.8635 29.0542 16.424 29.358 18 29.358V35.2286C15.6362 35.2286 13.2956 34.773 11.1117 33.8878C8.92784 33.0026 6.94353 31.7051 5.27208 30.0695C3.60062 28.4338 2.27475 26.492 1.37017 24.355C0.465584 22.2179 0 19.9274 0 17.6143C0 15.3011 0.465584 13.0107 1.37017 10.8736C2.27475 8.73653 3.60062 6.79474 5.27208 5.15911C6.94353 3.52347 8.92784 2.22601 11.1117 1.34081C13.2799 0.461964 15.6026 0.0065657 17.9491 7.04754e-05C17.9422 2.35172e-05 17.9354 0 17.9286 0H18Z" fill="white" fill-opacity="0.6"/>
<path d="M18 0C17.983 0 17.9661 2.3495e-05 17.9491 7.04754e-05C19.557 0.0111249 20.8571 1.32122 20.8571 2.93571C20.8571 4.53364 19.5836 5.83338 17.9985 5.87061C17.999 5.87061 17.9995 5.87061 18 5.87061L17.997 5.87064C17.9743 5.87117 17.9515 5.87143 17.9286 5.87143L17.997 5.87064C17.9975 5.87063 17.998 5.87062 17.9985 5.87061C16.423 5.8708 14.863 6.17456 13.4075 6.76454C11.9515 7.35472 10.6285 8.21975 9.51413 9.31025C8.39975 10.4008 7.51577 11.6954 6.91267 13.1202C6.30957 14.545 5.99916 16.0721 5.99916 17.6143C5.99916 19.1565 6.30957 20.6836 6.91267 22.1084C7.51577 23.5332 8.39975 24.8278 9.51413 25.9183C10.6285 27.0088 11.9515 27.8739 13.4075 28.464C14.8635 29.0542 16.424 29.358 18 29.358V35.2286C15.6362 35.2286 13.2956 34.773 11.1117 33.8878C8.92784 33.0026 6.94353 31.7051 5.27208 30.0695C3.60062 28.4338 2.27475 26.492 1.37017 24.355C0.465584 22.2179 0 19.9274 0 17.6143C0 15.3011 0.465584 13.0107 1.37017 10.8736C2.27475 8.73653 3.60062 6.79474 5.27208 5.15911C6.94353 3.52347 8.92784 2.22601 11.1117 1.34081C13.2799 0.461964 15.6026 0.0065657 17.9491 7.04754e-05C17.9422 2.35172e-05 17.9354 0 17.9286 0H18Z" fill="url(#paint0_linear_1039_1317)" fill-opacity="0.2"/>
<path d="M24.8883 39.7592C22.7044 40.6444 20.3638 41.1 18 41.1H17.9286C16.3112 41.1 15 39.7856 15 38.1643C15 36.5429 16.3112 35.2286 17.9286 35.2286L18 35.2294C19.576 35.2294 21.1365 34.9256 22.5925 34.3355C24.0485 33.7453 25.3715 32.8802 26.4859 31.7897C27.6003 30.6992 28.4842 29.4046 29.0873 27.9798C29.6904 26.555 30.0008 25.0279 30.0008 23.4857C30.0008 21.9435 29.6904 20.4164 29.0873 18.9916C28.4842 17.5668 27.6003 16.2722 26.4859 15.1817C25.3715 14.0912 24.0485 13.2261 22.5925 12.636C21.1365 12.0458 19.576 11.742 18 11.742V5.87143C20.3638 5.87143 22.7044 6.32704 24.8883 7.21224C27.0722 8.09744 29.0565 9.3949 30.7279 11.0305C32.3994 12.6662 33.7252 14.608 34.6298 16.745C35.5344 18.8821 36 21.1726 36 23.4857C36 25.7989 35.5344 28.0893 34.6298 30.2264C33.7252 32.3635 32.3994 34.3053 30.7279 35.9409C29.0565 37.5765 27.0722 38.874 24.8883 39.7592Z" fill="white" fill-opacity="0.6"/>
<path d="M24.8883 39.7592C22.7044 40.6444 20.3638 41.1 18 41.1H17.9286C16.3112 41.1 15 39.7856 15 38.1643C15 36.5429 16.3112 35.2286 17.9286 35.2286L18 35.2294C19.576 35.2294 21.1365 34.9256 22.5925 34.3355C24.0485 33.7453 25.3715 32.8802 26.4859 31.7897C27.6003 30.6992 28.4842 29.4046 29.0873 27.9798C29.6904 26.555 30.0008 25.0279 30.0008 23.4857C30.0008 21.9435 29.6904 20.4164 29.0873 18.9916C28.4842 17.5668 27.6003 16.2722 26.4859 15.1817C25.3715 14.0912 24.0485 13.2261 22.5925 12.636C21.1365 12.0458 19.576 11.742 18 11.742V5.87143C20.3638 5.87143 22.7044 6.32704 24.8883 7.21224C27.0722 8.09744 29.0565 9.3949 30.7279 11.0305C32.3994 12.6662 33.7252 14.608 34.6298 16.745C35.5344 18.8821 36 21.1726 36 23.4857C36 25.7989 35.5344 28.0893 34.6298 30.2264C33.7252 32.3635 32.3994 34.3053 30.7279 35.9409C29.0565 37.5765 27.0722 38.874 24.8883 39.7592Z" fill="url(#paint1_linear_1039_1317)" fill-opacity="0.2"/>
<path d="M22.5922 34.3347C21.1363 34.9248 19.5759 35.2286 18 35.2286H17.9286C16.3112 35.2286 15 33.9142 15 32.2929C15 30.6715 16.3112 29.3571 17.9286 29.3571L18 29.358C18.7881 29.358 19.5684 29.2062 20.2965 28.9111C21.0245 28.6159 21.6861 28.1834 22.2433 27.6381C22.8005 27.0928 23.2426 26.4454 23.5441 25.733C23.8457 25.0205 24.0009 24.2569 24.0009 23.4857C24.0009 22.7145 23.8457 21.9509 23.5441 21.2385C23.2426 20.526 22.8005 19.8786 22.2433 19.3333C21.6861 18.788 21.0245 18.3555 20.2965 18.0604C19.5684 17.7653 18.7881 17.6134 18 17.6134V11.7429C19.5759 11.7429 21.1363 12.0466 22.5922 12.6367C24.0481 13.2269 25.371 14.0918 26.4853 15.1823C27.5996 16.2727 28.4835 17.5672 29.0866 18.9919C29.6896 20.4166 30 21.9436 30 23.4857C30 25.0278 29.6896 26.5548 29.0866 27.9795C28.4835 29.4042 27.5996 30.6987 26.4853 31.7892C25.371 32.8796 24.0481 33.7446 22.5922 34.3347Z" fill="#E3E3E3"/>
<path d="M22.5922 34.3347C21.1363 34.9248 19.5759 35.2286 18 35.2286H17.9286C16.3112 35.2286 15 33.9142 15 32.2929C15 30.6715 16.3112 29.3571 17.9286 29.3571L18 29.358C18.7881 29.358 19.5684 29.2062 20.2965 28.9111C21.0245 28.6159 21.6861 28.1834 22.2433 27.6381C22.8005 27.0928 23.2426 26.4454 23.5441 25.733C23.8457 25.0205 24.0009 24.2569 24.0009 23.4857C24.0009 22.7145 23.8457 21.9509 23.5441 21.2385C23.2426 20.526 22.8005 19.8786 22.2433 19.3333C21.6861 18.788 21.0245 18.3555 20.2965 18.0604C19.5684 17.7653 18.7881 17.6134 18 17.6134V11.7429C19.5759 11.7429 21.1363 12.0466 22.5922 12.6367C24.0481 13.2269 25.371 14.0918 26.4853 15.1823C27.5996 16.2727 28.4835 17.5672 29.0866 18.9919C29.6896 20.4166 30 21.9436 30 23.4857C30 25.0278 29.6896 26.5548 29.0866 27.9795C28.4835 29.4042 27.5996 30.6987 26.4853 31.7892C25.371 32.8796 24.0481 33.7446 22.5922 34.3347Z" fill="url(#paint2_linear_1039_1317)" fill-opacity="0.2"/>
<path d="M13.4078 6.7653C14.8637 6.17517 16.4241 5.87143 18 5.87143C18.7578 5.87143 19.4845 6.18073 20.0203 6.73128C20.5561 7.28183 20.8571 8.02854 20.8571 8.80714C20.8571 9.58574 20.5561 10.3325 20.0203 10.883C19.4845 11.4336 18.7578 11.7429 18 11.7429L18 11.742C17.2119 11.742 16.4316 11.8938 15.7035 12.1889C14.9755 12.4841 14.3139 12.9166 13.7567 13.4619C13.1995 14.0072 12.7574 14.6546 12.4559 15.367C12.1543 16.0795 11.9991 16.8431 11.9991 17.6143C11.9991 18.3855 12.1543 19.1491 12.4559 19.8615C12.7574 20.574 13.1995 21.2214 13.7567 21.7667C14.3139 22.312 14.9755 22.7445 15.7035 23.0396C16.4316 23.3347 17.2119 23.4866 18 23.4866V29.3571C16.4241 29.3571 14.8637 29.0534 13.4078 28.4633C11.9519 27.8731 10.629 27.0082 9.51472 25.9177C8.40042 24.8273 7.5165 23.5328 6.91345 22.1081C6.31039 20.6834 6 19.1564 6 17.6143C6 16.0722 6.31039 14.5452 6.91345 13.1205C7.5165 11.6958 8.40042 10.4013 9.51472 9.31083C10.629 8.22041 11.9519 7.35543 13.4078 6.7653Z" fill="#E3E3E3"/>
<path d="M13.4078 6.7653C14.8637 6.17517 16.4241 5.87143 18 5.87143C18.7578 5.87143 19.4845 6.18073 20.0203 6.73128C20.5561 7.28183 20.8571 8.02854 20.8571 8.80714C20.8571 9.58574 20.5561 10.3325 20.0203 10.883C19.4845 11.4336 18.7578 11.7429 18 11.7429L18 11.742C17.2119 11.742 16.4316 11.8938 15.7035 12.1889C14.9755 12.4841 14.3139 12.9166 13.7567 13.4619C13.1995 14.0072 12.7574 14.6546 12.4559 15.367C12.1543 16.0795 11.9991 16.8431 11.9991 17.6143C11.9991 18.3855 12.1543 19.1491 12.4559 19.8615C12.7574 20.574 13.1995 21.2214 13.7567 21.7667C14.3139 22.312 14.9755 22.7445 15.7035 23.0396C16.4316 23.3347 17.2119 23.4866 18 23.4866V29.3571C16.4241 29.3571 14.8637 29.0534 13.4078 28.4633C11.9519 27.8731 10.629 27.0082 9.51472 25.9177C8.40042 24.8273 7.5165 23.5328 6.91345 22.1081C6.31039 20.6834 6 19.1564 6 17.6143C6 16.0722 6.31039 14.5452 6.91345 13.1205C7.5165 11.6958 8.40042 10.4013 9.51472 9.31083C10.629 8.22041 11.9519 7.35543 13.4078 6.7653Z" fill="url(#paint3_linear_1039_1317)" fill-opacity="0.2"/>
<defs>
<linearGradient id="paint0_linear_1039_1317" x1="31.4384" y1="37.9256" x2="26.4507" y2="10.1679" gradientUnits="userSpaceOnUse">
<stop/>
<stop offset="1" stop-opacity="0"/>
</linearGradient>
<linearGradient id="paint1_linear_1039_1317" x1="8.44898" y1="4.26037" x2="29.1056" y2="23.6388" gradientUnits="userSpaceOnUse">
<stop/>
<stop offset="1" stop-opacity="0"/>
</linearGradient>
<linearGradient id="paint2_linear_1039_1317" x1="1.88571" y1="4.76159" x2="21.6981" y2="23.8625" gradientUnits="userSpaceOnUse">
<stop/>
<stop offset="0.344195" stop-color="#585858"/>
<stop offset="1" stop-color="white"/>
</linearGradient>
<linearGradient id="paint3_linear_1039_1317" x1="18" y1="26.3498" x2="11.0028" y2="13.6819" gradientUnits="userSpaceOnUse">
<stop/>
<stop offset="0.344195" stop-color="#585858"/>
<stop offset="1" stop-color="white"/>
</linearGradient>
</defs>
</svg>
