  <svg width="306" height="348" viewBox="0 0 306 348" fill="none" xmlns="http://www.w3.org/2000/svg">
<path d="M153 248.151C159.66 248.151 166.255 246.87 172.409 244.382C178.562 241.894 184.153 238.247 188.862 233.65C193.572 229.053 197.308 223.595 199.856 217.588C202.405 211.581 203.717 205.143 203.717 198.642C203.717 192.14 202.405 185.702 199.856 179.695C197.308 173.688 193.572 168.23 188.862 163.633C184.153 159.036 178.562 155.389 172.409 152.901C166.255 150.413 159.66 149.132 153 149.132V198.642V248.151Z" fill="white"/>
<path d="M153 99.6227C146.34 99.6227 139.745 100.903 133.592 103.391C127.438 105.879 121.847 109.526 117.138 114.124C112.428 118.721 108.692 124.179 106.144 130.186C103.595 136.192 102.283 142.63 102.283 149.132C102.283 155.634 103.595 162.072 106.144 168.079C108.692 174.085 112.428 179.543 117.138 184.141C121.847 188.738 127.438 192.385 133.592 194.873C139.745 197.361 146.34 198.642 153 198.642V149.132V99.6227Z" fill="white"/>
<path d="M153 0.60379C152.857 0.60379 152.713 0.603988 152.57 0.604385C166.162 0.697598 177.151 11.7447 177.151 25.3585C177.151 38.8326 166.386 49.7924 152.987 50.1063C152.992 50.1063 152.996 50.1063 153 50.1063L152.975 50.1066C152.783 50.111 152.59 50.1132 152.396 50.1132L152.975 50.1066C152.979 50.1065 152.983 50.1064 152.987 50.1063C139.67 50.1079 126.484 52.6693 114.18 57.6442C101.873 62.6207 90.6901 69.9149 81.2704 79.1103C71.8507 88.3057 64.3786 99.2222 59.2808 111.237C54.1829 123.251 51.559 136.128 51.559 149.132C51.559 162.136 54.1829 175.013 59.2808 187.028C64.3786 199.042 71.8507 209.959 81.2704 219.154C90.6901 228.349 101.873 235.643 114.18 240.62C126.488 245.597 139.679 248.158 153 248.158V297.66C133.019 297.66 113.234 293.819 94.7744 286.354C76.3146 278.89 59.5416 267.95 45.4131 254.157C31.2846 240.365 20.0772 223.992 12.4309 205.971C4.78462 187.951 0.849121 168.637 0.849121 149.132C0.849121 129.627 4.78462 110.313 12.4309 92.2928C20.0772 74.2725 31.2846 57.8988 45.4131 44.1067C59.5416 30.3146 76.3146 19.3741 94.7744 11.9098C113.102 4.49919 132.735 0.659154 152.57 0.604385C152.512 0.603989 152.454 0.60379 152.396 0.60379H153Z" fill="white" fill-opacity="0.6"/>
<path d="M153 0.60379C152.857 0.60379 152.713 0.603988 152.57 0.604385C166.162 0.697598 177.151 11.7447 177.151 25.3585C177.151 38.8326 166.386 49.7924 152.987 50.1063C152.992 50.1063 152.996 50.1063 153 50.1063L152.975 50.1066C152.783 50.111 152.59 50.1132 152.396 50.1132L152.975 50.1066C152.979 50.1065 152.983 50.1064 152.987 50.1063C139.67 50.1079 126.484 52.6693 114.18 57.6442C101.873 62.6207 90.6901 69.9149 81.2704 79.1103C71.8507 88.3057 64.3786 99.2222 59.2808 111.237C54.1829 123.251 51.559 136.128 51.559 149.132C51.559 162.136 54.1829 175.013 59.2808 187.028C64.3786 199.042 71.8507 209.959 81.2704 219.154C90.6901 228.349 101.873 235.643 114.18 240.62C126.488 245.597 139.679 248.158 153 248.158V297.66C133.019 297.66 113.234 293.819 94.7744 286.354C76.3146 278.89 59.5416 267.95 45.4131 254.157C31.2846 240.365 20.0772 223.992 12.4309 205.971C4.78462 187.951 0.849121 168.637 0.849121 149.132C0.849121 129.627 4.78462 110.313 12.4309 92.2928C20.0772 74.2725 31.2846 57.8988 45.4131 44.1067C59.5416 30.3146 76.3146 19.3741 94.7744 11.9098C113.102 4.49919 132.735 0.659154 152.57 0.604385C152.512 0.603989 152.454 0.60379 152.396 0.60379H153Z" fill="url(#paint0_linear_1045_512)" fill-opacity="0.2"/>
<path d="M211.226 335.864C192.766 343.328 172.981 347.17 153 347.17H152.396C138.725 347.17 127.642 336.087 127.642 322.415C127.642 308.743 138.725 297.66 152.396 297.66L153 297.667C166.321 297.667 179.512 295.106 191.82 290.129C204.127 285.153 215.31 277.859 224.73 268.663C234.149 259.468 241.621 248.551 246.719 236.537C251.817 224.523 254.441 211.646 254.441 198.642C254.441 185.637 251.817 172.76 246.719 160.746C241.621 148.732 234.149 137.815 224.73 128.62C215.31 119.424 204.127 112.13 191.82 107.154C179.512 102.177 166.321 99.6157 153 99.6157V50.1132C172.981 50.1132 192.766 53.955 211.226 61.4193C229.686 68.8835 246.459 79.824 260.587 93.6162C274.716 107.408 285.923 123.782 293.569 141.802C301.216 159.822 305.151 179.137 305.151 198.642C305.151 218.147 301.216 237.461 293.569 255.481C285.923 273.501 274.716 289.875 260.587 303.667C246.459 317.459 229.686 328.4 211.226 335.864Z" fill="white" fill-opacity="0.6"/>
<path d="M211.226 335.864C192.766 343.328 172.981 347.17 153 347.17H152.396C138.725 347.17 127.642 336.087 127.642 322.415C127.642 308.743 138.725 297.66 152.396 297.66L153 297.667C166.321 297.667 179.512 295.106 191.82 290.129C204.127 285.153 215.31 277.859 224.73 268.663C234.149 259.468 241.621 248.551 246.719 236.537C251.817 224.523 254.441 211.646 254.441 198.642C254.441 185.637 251.817 172.76 246.719 160.746C241.621 148.732 234.149 137.815 224.73 128.62C215.31 119.424 204.127 112.13 191.82 107.154C179.512 102.177 166.321 99.6157 153 99.6157V50.1132C172.981 50.1132 192.766 53.955 211.226 61.4193C229.686 68.8835 246.459 79.824 260.587 93.6162C274.716 107.408 285.923 123.782 293.569 141.802C301.216 159.822 305.151 179.137 305.151 198.642C305.151 218.147 301.216 237.461 293.569 255.481C285.923 273.501 274.716 289.875 260.587 303.667C246.459 317.459 229.686 328.4 211.226 335.864Z" fill="url(#paint1_linear_1045_512)" fill-opacity="0.2"/>
<path d="M191.817 290.123C179.511 295.099 166.321 297.66 153 297.66H152.396C138.725 297.66 127.642 286.577 127.642 272.906C127.642 259.234 138.725 248.151 152.396 248.151L153 248.158C159.661 248.158 166.257 246.878 172.412 244.389C178.566 241.901 184.158 238.254 188.868 233.655C193.578 229.057 197.315 223.599 199.864 217.591C202.413 211.583 203.725 205.144 203.725 198.642C203.725 192.139 202.413 185.7 199.864 179.692C197.315 173.684 193.578 168.226 188.868 163.628C184.158 159.03 178.566 155.382 172.412 152.894C166.257 150.405 159.661 149.124 153 149.124V99.6227C166.321 99.6227 179.511 102.184 191.817 107.16C204.124 112.136 215.306 119.43 224.725 128.625C234.144 137.819 241.615 148.735 246.713 160.749C251.81 172.762 254.434 185.638 254.434 198.642C254.434 211.645 251.81 224.521 246.713 236.534C241.615 248.548 234.144 259.464 224.725 268.658C215.306 277.853 204.124 285.147 191.817 290.123Z" fill="#E3E3E3"/>
<path d="M191.817 290.123C179.511 295.099 166.321 297.66 153 297.66H152.396C138.725 297.66 127.642 286.577 127.642 272.906C127.642 259.234 138.725 248.151 152.396 248.151L153 248.158C159.661 248.158 166.257 246.878 172.412 244.389C178.566 241.901 184.158 238.254 188.868 233.655C193.578 229.057 197.315 223.599 199.864 217.591C202.413 211.583 203.725 205.144 203.725 198.642C203.725 192.139 202.413 185.7 199.864 179.692C197.315 173.684 193.578 168.226 188.868 163.628C184.158 159.03 178.566 155.382 172.412 152.894C166.257 150.405 159.661 149.124 153 149.124V99.6227C166.321 99.6227 179.511 102.184 191.817 107.16C204.124 112.136 215.306 119.43 224.725 128.625C234.144 137.819 241.615 148.735 246.713 160.749C251.81 172.762 254.434 185.638 254.434 198.642C254.434 211.645 251.81 224.521 246.713 236.534C241.615 248.548 234.144 259.464 224.725 268.658C215.306 277.853 204.124 285.147 191.817 290.123Z" fill="url(#paint2_linear_1045_512)" fill-opacity="0.2"/>
<path d="M114.183 57.6506C126.49 52.6744 139.68 50.1132 153 50.1132C159.405 50.1132 165.548 52.7213 170.077 57.3637C174.607 62.0061 177.151 68.3026 177.151 74.8679C177.151 81.4333 174.607 87.7298 170.077 92.3722C165.548 97.0146 159.405 99.6227 153 99.6227V99.6157C146.339 99.6157 139.743 100.896 133.588 103.384C127.434 105.873 121.842 109.52 117.132 114.118C112.422 118.716 108.686 124.175 106.136 130.183C103.587 136.19 102.275 142.629 102.275 149.132C102.275 155.635 103.587 162.074 106.136 168.081C108.686 174.089 112.422 179.548 117.132 184.146C121.842 188.744 127.434 192.392 133.588 194.88C139.743 197.368 146.339 198.649 153 198.649V248.151C139.68 248.151 126.49 245.59 114.183 240.614C101.876 235.637 90.6944 228.344 81.2754 219.149C71.8564 209.954 64.3848 199.038 59.2873 187.025C54.1898 175.011 51.5661 162.135 51.5661 149.132C51.5661 136.129 54.1898 123.253 59.2873 111.239C64.3848 99.2257 71.8564 88.3099 81.2754 79.1152C90.6944 69.9204 101.876 62.6268 114.183 57.6506Z" fill="#E3E3E3"/>
<path d="M114.183 57.6506C126.49 52.6744 139.68 50.1132 153 50.1132C159.405 50.1132 165.548 52.7213 170.077 57.3637C174.607 62.0061 177.151 68.3026 177.151 74.8679C177.151 81.4333 174.607 87.7298 170.077 92.3722C165.548 97.0146 159.405 99.6227 153 99.6227V99.6157C146.339 99.6157 139.743 100.896 133.588 103.384C127.434 105.873 121.842 109.52 117.132 114.118C112.422 118.716 108.686 124.175 106.136 130.183C103.587 136.19 102.275 142.629 102.275 149.132C102.275 155.635 103.587 162.074 106.136 168.081C108.686 174.089 112.422 179.548 117.132 184.146C121.842 188.744 127.434 192.392 133.588 194.88C139.743 197.368 146.339 198.649 153 198.649V248.151C139.68 248.151 126.49 245.59 114.183 240.614C101.876 235.637 90.6944 228.344 81.2754 219.149C71.8564 209.954 64.3848 199.038 59.2873 187.025C54.1898 175.011 51.5661 162.135 51.5661 149.132C51.5661 136.129 54.1898 123.253 59.2873 111.239C64.3848 99.2257 71.8564 88.3099 81.2754 79.1152C90.6944 69.9204 101.876 62.6268 114.183 57.6506Z" fill="url(#paint3_linear_1045_512)" fill-opacity="0.2"/>
<defs>
<linearGradient id="paint0_linear_1045_512" x1="266.592" y1="320.403" x2="224.631" y2="86.3064" gradientUnits="userSpaceOnUse">
<stop/>
<stop offset="1" stop-opacity="0"/>
</linearGradient>
<linearGradient id="paint1_linear_1045_512" x1="72.2669" y1="36.5283" x2="246.476" y2="200.356" gradientUnits="userSpaceOnUse">
<stop/>
<stop offset="1" stop-opacity="0"/>
</linearGradient>
<linearGradient id="paint2_linear_1045_512" x1="16.7887" y1="40.7547" x2="183.866" y2="202.226" gradientUnits="userSpaceOnUse">
<stop/>
<stop offset="0.344195" stop-color="#585858"/>
<stop offset="1" stop-color="white"/>
</linearGradient>
<linearGradient id="paint3_linear_1045_512" x1="153" y1="222.792" x2="94.074" y2="115.852" gradientUnits="userSpaceOnUse">
<stop/>
<stop offset="0.344195" stop-color="#585858"/>
<stop offset="1" stop-color="white"/>
</linearGradient>
</defs>
</svg>
