{
    "asset": {
        "generator": "FBX2glTF v0.9.7",
        "version": "2.0"
    },
    "scene": 0,
    "buffers": [
        {
            "byteLength": 1233084,
            "uri": "data:application/octet-stream;base64,"
        }
    ],
    "bufferViews": [
        {
            "buffer": 0,
            "byteLength": 181428,
            "byteOffset": 0,
            "target": 34963
        },
        {
            "buffer": 0,
            "byteLength": 248124,
            "byteOffset": 181428,
            "target": 34962
        },
        {
            "buffer": 0,
            "byteLength": 248124,
            "byteOffset": 429552,
            "target": 34962
        },
        {
            "buffer": 0,
            "byteLength": 165416,
            "byteOffset": 677676,
            "target": 34962
        },
        {
            "buffer": 0,
            "byteLength": 2256,
            "byteOffset": 843092,
            "target": 34963
        },
        {
            "buffer": 0,
            "byteLength": 6360,
            "byteOffset": 845348,
            "target": 34962
        },
        {
            "buffer": 0,
            "byteLength": 6360,
            "byteOffset": 851708,
            "target": 34962
        },
        {
            "buffer": 0,
            "byteLength": 4240,
            "byteOffset": 858068,
            "target": 34962
        },
        {
            "buffer": 0,
            "byteLength": 5904,
            "byteOffset": 862308,
            "target": 34963
        },
        {
            "buffer": 0,
            "byteLength": 18120,
            "byteOffset": 868212,
            "target": 34962
        },
        {
            "buffer": 0,
            "byteLength": 18120,
            "byteOffset": 886332,
            "target": 34962
        },
        {
            "buffer": 0,
            "byteLength": 12080,
            "byteOffset": 904452,
            "target": 34962
        },
        {
            "buffer": 0,
            "byteLength": 3432,
            "byteOffset": 916532,
            "target": 34963
        },
        {
            "buffer": 0,
            "byteLength": 10704,
            "byteOffset": 919964,
            "target": 34962
        },
        {
            "buffer": 0,
            "byteLength": 10704,
            "byteOffset": 930668,
            "target": 34962
        },
        {
            "buffer": 0,
            "byteLength": 7136,
            "byteOffset": 941372,
            "target": 34962
        },
        {
            "buffer": 0,
            "byteLength": 3624,
            "byteOffset": 948508,
            "target": 34963
        },
        {
            "buffer": 0,
            "byteLength": 11232,
            "byteOffset": 952132,
            "target": 34962
        },
        {
            "buffer": 0,
            "byteLength": 11232,
            "byteOffset": 963364,
            "target": 34962
        },
        {
            "buffer": 0,
            "byteLength": 7488,
            "byteOffset": 974596,
            "target": 34962
        },
        {
            "buffer": 0,
            "byteLength": 19536,
            "byteOffset": 982084,
            "target": 34963
        },
        {
            "buffer": 0,
            "byteLength": 60192,
            "byteOffset": 1001620,
            "target": 34962
        },
        {
            "buffer": 0,
            "byteLength": 60192,
            "byteOffset": 1061812,
            "target": 34962
        },
        {
            "buffer": 0,
            "byteLength": 40128,
            "byteOffset": 1122004,
            "target": 34962
        },
        {
            "buffer": 0,
            "byteLength": 3072,
            "byteOffset": 1162132,
            "target": 34963
        },
        {
            "buffer": 0,
            "byteLength": 9528,
            "byteOffset": 1165204,
            "target": 34962
        },
        {
            "buffer": 0,
            "byteLength": 9528,
            "byteOffset": 1174732,
            "target": 34962
        },
        {
            "buffer": 0,
            "byteLength": 6352,
            "byteOffset": 1184260,
            "target": 34962
        },
        {
            "buffer": 0,
            "byteLength": 4392,
            "byteOffset": 1190612,
            "target": 34963
        },
        {
            "buffer": 0,
            "byteLength": 14280,
            "byteOffset": 1195004,
            "target": 34962
        },
        {
            "buffer": 0,
            "byteLength": 14280,
            "byteOffset": 1209284,
            "target": 34962
        },
        {
            "buffer": 0,
            "byteLength": 9520,
            "byteOffset": 1223564,
            "target": 34962
        }
    ],
    "scenes": [
        {
            "name": "Root Scene",
            "nodes": [
                0
            ]
        }
    ],
    "accessors": [
        {
            "componentType": 5123,
            "type": "SCALAR",
            "count": 90714,
            "bufferView": 0,
            "byteOffset": 0
        },
        {
            "componentType": 5126,
            "type": "VEC3",
            "count": 20677,
            "bufferView": 1,
            "byteOffset": 0,
            "min": [
                -0.000899909646250308,
                -0.000577291590161622,
                -4.50000006821938e-05
            ],
            "max": [
                0.000555243750568479,
                0.000877233571372926,
                4.50000006821938e-05
            ]
        },
        {
            "componentType": 5126,
            "type": "VEC3",
            "count": 20677,
            "bufferView": 2,
            "byteOffset": 0
        },
        {
            "componentType": 5126,
            "type": "VEC2",
            "count": 20677,
            "bufferView": 3,
            "byteOffset": 0
        },
        {
            "componentType": 5123,
            "type": "SCALAR",
            "count": 1128,
            "bufferView": 4,
            "byteOffset": 0
        },
        {
            "componentType": 5126,
            "type": "VEC3",
            "count": 530,
            "bufferView": 5,
            "byteOffset": 0,
            "min": [
                0.00122862588614225,
                0.000818611355498433,
                -5.00000023748726e-05
            ],
            "max": [
                0.00127567048184574,
                0.00105796928983182,
                5.00000023748726e-05
            ]
        },
        {
            "componentType": 5126,
            "type": "VEC3",
            "count": 530,
            "bufferView": 6,
            "byteOffset": 0
        },
        {
            "componentType": 5126,
            "type": "VEC2",
            "count": 530,
            "bufferView": 7,
            "byteOffset": 0
        },
        {
            "componentType": 5123,
            "type": "SCALAR",
            "count": 2952,
            "bufferView": 8,
            "byteOffset": 0
        },
        {
            "componentType": 5126,
            "type": "VEC3",
            "count": 1510,
            "bufferView": 9,
            "byteOffset": 0,
            "min": [
                4.78062429465353e-05,
                0.000494908890686929,
                -2.99999992421363e-05
            ],
            "max": [
                0.000895274628419429,
                0.00105813273694366,
                2.99999992421363e-05
            ]
        },
        {
            "componentType": 5126,
            "type": "VEC3",
            "count": 1510,
            "bufferView": 10,
            "byteOffset": 0
        },
        {
            "componentType": 5126,
            "type": "VEC2",
            "count": 1510,
            "bufferView": 11,
            "byteOffset": 0
        },
        {
            "componentType": 5123,
            "type": "SCALAR",
            "count": 1716,
            "bufferView": 12,
            "byteOffset": 0
        },
        {
            "componentType": 5126,
            "type": "VEC3",
            "count": 892,
            "bufferView": 13,
            "byteOffset": 0,
            "min": [
                4.77229878015351e-05,
                4.80408089060802e-05,
                -2.99999992421363e-05
            ],
            "max": [
                0.00101326522417367,
                0.000361175538273528,
                2.99999992421363e-05
            ]
        },
        {
            "componentType": 5126,
            "type": "VEC3",
            "count": 892,
            "bufferView": 14,
            "byteOffset": 0
        },
        {
            "componentType": 5126,
            "type": "VEC2",
            "count": 892,
            "bufferView": 15,
            "byteOffset": 0
        },
        {
            "componentType": 5123,
            "type": "SCALAR",
            "count": 1812,
            "bufferView": 16,
            "byteOffset": 0
        },
        {
            "componentType": 5126,
            "type": "VEC3",
            "count": 936,
            "bufferView": 17,
            "byteOffset": 0,
            "min": [
                0.000626546156127006,
                4.79043410450686e-05,
                -2.99999992421363e-05
            ],
            "max": [
                0.00105835497379303,
                0.000361175538273528,
                2.99999992421363e-05
            ]
        },
        {
            "componentType": 5126,
            "type": "VEC3",
            "count": 936,
            "bufferView": 18,
            "byteOffset": 0
        },
        {
            "componentType": 5126,
            "type": "VEC2",
            "count": 936,
            "bufferView": 19,
            "byteOffset": 0
        },
        {
            "componentType": 5123,
            "type": "SCALAR",
            "count": 9768,
            "bufferView": 20,
            "byteOffset": 0
        },
        {
            "componentType": 5126,
            "type": "VEC3",
            "count": 5016,
            "bufferView": 21,
            "byteOffset": 0,
            "min": [
                0.000722503638826311,
                4.79686241305899e-05,
                -2.99999992421363e-05
            ],
            "max": [
                0.00134904973674566,
                0.00139673391822726,
                2.99999992421363e-05
            ]
        },
        {
            "componentType": 5126,
            "type": "VEC3",
            "count": 5016,
            "bufferView": 22,
            "byteOffset": 0
        },
        {
            "componentType": 5126,
            "type": "VEC2",
            "count": 5016,
            "bufferView": 23,
            "byteOffset": 0
        },
        {
            "componentType": 5123,
            "type": "SCALAR",
            "count": 1536,
            "bufferView": 24,
            "byteOffset": 0
        },
        {
            "componentType": 5126,
            "type": "VEC3",
            "count": 794,
            "bufferView": 25,
            "byteOffset": 0,
            "min": [
                0.000288080977043137,
                4.79686241305899e-05,
                -2.99999992421363e-05
            ],
            "max": [
                0.0013970285654068,
                0.00139673345256597,
                2.99999992421363e-05
            ]
        },
        {
            "componentType": 5126,
            "type": "VEC3",
            "count": 794,
            "bufferView": 26,
            "byteOffset": 0
        },
        {
            "componentType": 5126,
            "type": "VEC2",
            "count": 794,
            "bufferView": 27,
            "byteOffset": 0
        },
        {
            "componentType": 5123,
            "type": "SCALAR",
            "count": 2196,
            "bufferView": 28,
            "byteOffset": 0
        },
        {
            "componentType": 5126,
            "type": "VEC3",
            "count": 1190,
            "bufferView": 29,
            "byteOffset": 0,
            "min": [
                4.79787595395464e-05,
                0.000409144151490182,
                -2.99999992421363e-05
            ],
            "max": [
                0.00105835497379303,
                0.00105813145637512,
                2.99999992421363e-05
            ]
        },
        {
            "componentType": 5126,
            "type": "VEC3",
            "count": 1190,
            "bufferView": 30,
            "byteOffset": 0
        },
        {
            "componentType": 5126,
            "type": "VEC2",
            "count": 1190,
            "bufferView": 31,
            "byteOffset": 0
        }
    ],
    "samplers": [
        {}
    ],
    "materials": [
        {
            "name": "SVGMat.003",
            "alphaMode": "OPAQUE",
            "extras": {
                "fromFBX": {
                    "shadingModel": "Phong",
                    "isTruePBR": false
                }
            },
            "pbrMetallicRoughness": {
                "baseColorFactor": [
                    0.0,
                    0.0,
                    0.0318960323929787,
                    1.0
                ],
                "metallicFactor": 0.400000005960464,
                "roughnessFactor": 0.229415729641914
            }
        },
        {
            "name": "SVGMat.038",
            "alphaMode": "OPAQUE",
            "extras": {
                "fromFBX": {
                    "shadingModel": "Phong",
                    "isTruePBR": false
                }
            },
            "pbrMetallicRoughness": {
                "baseColorFactor": [
                    0.938685715198517,
                    0.775822222232819,
                    0.0382043719291687,
                    1.0
                ],
                "metallicFactor": 0.400000005960464,
                "roughnessFactor": 0.229415729641914
            }
        },
        {
            "name": "SVGMat.039",
            "alphaMode": "OPAQUE",
            "extras": {
                "fromFBX": {
                    "shadingModel": "Phong",
                    "isTruePBR": false
                }
            },
            "pbrMetallicRoughness": {
                "baseColorFactor": [
                    0.000303526991046965,
                    0.38642942905426,
                    0.887923121452332,
                    1.0
                ],
                "metallicFactor": 0.400000005960464,
                "roughnessFactor": 0.229415729641914
            }
        },
        {
            "name": "SVGMat.040",
            "alphaMode": "OPAQUE",
            "extras": {
                "fromFBX": {
                    "shadingModel": "Phong",
                    "isTruePBR": false
                }
            },
            "pbrMetallicRoughness": {
                "baseColorFactor": [
                    0.111932426691055,
                    0.19806931912899,
                    0.250158280134201,
                    1.0
                ],
                "metallicFactor": 0.400000005960464,
                "roughnessFactor": 0.229415729641914
            }
        },
        {
            "name": "SVGMat.041",
            "alphaMode": "OPAQUE",
            "extras": {
                "fromFBX": {
                    "shadingModel": "Phong",
                    "isTruePBR": false
                }
            },
            "pbrMetallicRoughness": {
                "baseColorFactor": [
                    0.0466650873422623,
                    0.078187420964241,
                    0.450785785913467,
                    1.0
                ],
                "metallicFactor": 0.400000005960464,
                "roughnessFactor": 0.229415729641914
            }
        },
        {
            "name": "SVGMat.042",
            "alphaMode": "OPAQUE",
            "extras": {
                "fromFBX": {
                    "shadingModel": "Phong",
                    "isTruePBR": false
                }
            },
            "pbrMetallicRoughness": {
                "baseColorFactor": [
                    0.000303526991046965,
                    0.177888423204422,
                    0.491020858287811,
                    1.0
                ],
                "metallicFactor": 0.400000005960464,
                "roughnessFactor": 0.229415729641914
            }
        }
    ],
    "meshes": [
        {
            "name": "path302",
            "primitives": [
                {
                    "material": 0,
                    "mode": 4,
                    "attributes": {
                        "NORMAL": 2,
                        "POSITION": 1,
                        "TEXCOORD_0": 3
                    },
                    "indices": 0
                }
            ]
        },
        {
            "name": "path314",
            "primitives": [
                {
                    "material": 1,
                    "mode": 4,
                    "attributes": {
                        "NORMAL": 6,
                        "POSITION": 5,
                        "TEXCOORD_0": 7
                    },
                    "indices": 4
                }
            ]
        },
        {
            "name": "path312",
            "primitives": [
                {
                    "material": 2,
                    "mode": 4,
                    "attributes": {
                        "NORMAL": 10,
                        "POSITION": 9,
                        "TEXCOORD_0": 11
                    },
                    "indices": 8
                }
            ]
        },
        {
            "name": "path310",
            "primitives": [
                {
                    "material": 3,
                    "mode": 4,
                    "attributes": {
                        "NORMAL": 14,
                        "POSITION": 13,
                        "TEXCOORD_0": 15
                    },
                    "indices": 12
                }
            ]
        },
        {
            "name": "path304.001",
            "primitives": [
                {
                    "material": 3,
                    "mode": 4,
                    "attributes": {
                        "NORMAL": 18,
                        "POSITION": 17,
                        "TEXCOORD_0": 19
                    },
                    "indices": 16
                }
            ]
        },
        {
            "name": "path308",
            "primitives": [
                {
                    "material": 4,
                    "mode": 4,
                    "attributes": {
                        "NORMAL": 22,
                        "POSITION": 21,
                        "TEXCOORD_0": 23
                    },
                    "indices": 20
                }
            ]
        },
        {
            "name": "path304",
            "primitives": [
                {
                    "material": 4,
                    "mode": 4,
                    "attributes": {
                        "NORMAL": 26,
                        "POSITION": 25,
                        "TEXCOORD_0": 27
                    },
                    "indices": 24
                }
            ]
        },
        {
            "name": "path306",
            "primitives": [
                {
                    "material": 5,
                    "mode": 4,
                    "attributes": {
                        "NORMAL": 30,
                        "POSITION": 29,
                        "TEXCOORD_0": 31
                    },
                    "indices": 28
                }
            ]
        }
    ],
    "nodes": [
        {
            "name": "RootNode",
            "translation": [
                0.0,
                0.0,
                0.0
            ],
            "rotation": [
                0.0,
                0.0,
                0.0,
                1.0
            ],
            "scale": [
                1.0,
                1.0,
                1.0
            ],
            "children": [
                1
            ]
        },
        {
            "name": "path302",
            "translation": [
                0.0,
                0.0,
                0.0
            ],
            "rotation": [
                -1.7112913682822e-15,
                1.0,
                -2.1855694143369e-08,
                -7.54979012640433e-08
            ],
            "scale": [
                3963.92895507813,
                3963.92895507813,
                3963.92895507813
            ],
            "children": [
                2,
                3,
                4,
                5,
                6,
                7,
                8
            ],
            "mesh": 0
        },
        {
            "name": "path314",
            "translation": [
                -0.000894804892595857,
                -0.000572483579162508,
                -5.32022759180961e-11
            ],
            "rotation": [
                -3.81158349327393e-09,
                6.00422538354906e-08,
                1.72922725028002e-08,
                1.0
            ],
            "scale": [
                0.99999988079071,
                0.999999940395355,
                0.999999940395355
            ],
            "mesh": 1
        },
        {
            "name": "path312",
            "translation": [
                -0.000894804892595857,
                -0.000572483579162508,
                -5.32022759180961e-11
            ],
            "rotation": [
                -3.81158349327393e-09,
                6.00422538354906e-08,
                1.72922725028002e-08,
                1.0
            ],
            "scale": [
                0.99999988079071,
                0.999999940395355,
                0.999999940395355
            ],
            "mesh": 2
        },
        {
            "name": "path310",
            "translation": [
                -0.000894804892595857,
                -0.000572483579162508,
                -5.32022759180961e-11
            ],
            "rotation": [
                -3.81158349327393e-09,
                6.00422538354906e-08,
                1.72922725028002e-08,
                1.0
            ],
            "scale": [
                0.99999988079071,
                0.999999940395355,
                0.999999940395355
            ],
            "mesh": 3
        },
        {
            "name": "path308",
            "translation": [
                -0.000894804892595857,
                -0.000572483579162508,
                -5.32022759180961e-11
            ],
            "rotation": [
                -3.81158349327393e-09,
                6.00422538354906e-08,
                1.72922725028002e-08,
                1.0
            ],
            "scale": [
                0.99999988079071,
                0.999999940395355,
                0.999999940395355
            ],
            "mesh": 5
        },
        {
            "name": "path306",
            "translation": [
                -0.000894804892595857,
                -0.000572483579162508,
                -5.32022759180961e-11
            ],
            "rotation": [
                -3.81158349327393e-09,
                6.00422538354906e-08,
                1.72922725028002e-08,
                1.0
            ],
            "scale": [
                0.99999988079071,
                0.999999940395355,
                0.999999940395355
            ],
            "mesh": 7
        },
        {
            "name": "path304.001",
            "translation": [
                -0.000894804892595857,
                -0.000572483579162508,
                -5.32022759180961e-11
            ],
            "rotation": [
                -3.81158349327393e-09,
                6.00422538354906e-08,
                1.72922725028002e-08,
                1.0
            ],
            "scale": [
                0.99999988079071,
                0.999999940395355,
                0.999999940395355
            ],
            "mesh": 4
        },
        {
            "name": "path304",
            "translation": [
                -0.000894804892595857,
                -0.000572483579162508,
                -5.32022759180961e-11
            ],
            "rotation": [
                -3.81158349327393e-09,
                6.00422538354906e-08,
                1.72922725028002e-08,
                1.0
            ],
            "scale": [
                0.99999988079071,
                0.999999940395355,
                0.999999940395355
            ],
            "mesh": 6
        }
    ]
}