{
    "asset": {
        "generator": "FBX2glTF v0.9.7",
        "version": "2.0"
    },
    "scene": 0,
    "buffers": [
        {
            "byteLength": 1060680,
            "uri": "data:application/octet-stream;base64,"
        }
    ],
    "bufferViews": [
        {
            "buffer": 0,
            "byteLength": 181752,
            "byteOffset": 0,
            "target": 34963
        },
        {
            "buffer": 0,
            "byteLength": 247644,
            "byteOffset": 181752,
            "target": 34962
        },
        {
            "buffer": 0,
            "byteLength": 247644,
            "byteOffset": 429396,
            "target": 34962
        },
        {
            "buffer": 0,
            "byteLength": 165096,
            "byteOffset": 677040,
            "target": 34962
        },
        {
            "buffer": 0,
            "byteLength": 5208,
            "byteOffset": 842136,
            "target": 34963
        },
        {
            "buffer": 0,
            "byteLength": 16200,
            "byteOffset": 847344,
            "target": 34962
        },
        {
            "buffer": 0,
            "byteLength": 16200,
            "byteOffset": 863544,
            "target": 34962
        },
        {
            "buffer": 0,
            "byteLength": 10800,
            "byteOffset": 879744,
            "target": 34962
        },
        {
            "buffer": 0,
            "byteLength": 3168,
            "byteOffset": 890544,
            "target": 34963
        },
        {
            "buffer": 0,
            "byteLength": 9840,
            "byteOffset": 893712,
            "target": 34962
        },
        {
            "buffer": 0,
            "byteLength": 9840,
            "byteOffset": 903552,
            "target": 34962
        },
        {
            "buffer": 0,
            "byteLength": 6560,
            "byteOffset": 913392,
            "target": 34962
        },
        {
            "buffer": 0,
            "byteLength": 4416,
            "byteOffset": 919952,
            "target": 34963
        },
        {
            "buffer": 0,
            "byteLength": 14424,
            "byteOffset": 924368,
            "target": 34962
        },
        {
            "buffer": 0,
            "byteLength": 14424,
            "byteOffset": 938792,
            "target": 34962
        },
        {
            "buffer": 0,
            "byteLength": 9616,
            "byteOffset": 953216,
            "target": 34962
        },
        {
            "buffer": 0,
            "byteLength": 10680,
            "byteOffset": 962832,
            "target": 34963
        },
        {
            "buffer": 0,
            "byteLength": 32688,
            "byteOffset": 973512,
            "target": 34962
        },
        {
            "buffer": 0,
            "byteLength": 32688,
            "byteOffset": 1006200,
            "target": 34962
        },
        {
            "buffer": 0,
            "byteLength": 21792,
            "byteOffset": 1038888,
            "target": 34962
        }
    ],
    "scenes": [
        {
            "name": "Root Scene",
            "nodes": [
                0
            ]
        }
    ],
    "accessors": [
        {
            "componentType": 5123,
            "type": "SCALAR",
            "count": 90876,
            "bufferView": 0,
            "byteOffset": 0
        },
        {
            "componentType": 5126,
            "type": "VEC3",
            "count": 20637,
            "bufferView": 1,
            "byteOffset": 0,
            "min": [
                -0.000404603924835101,
                -0.000562448287382722,
                -4.50000006821938e-05
            ],
            "max": [
                0.000427725870395079,
                0.000785102660302073,
                4.50000006821938e-05
            ]
        },
        {
            "componentType": 5126,
            "type": "VEC3",
            "count": 20637,
            "bufferView": 2,
            "byteOffset": 0
        },
        {
            "componentType": 5126,
            "type": "VEC2",
            "count": 20637,
            "bufferView": 3,
            "byteOffset": 0
        },
        {
            "componentType": 5123,
            "type": "SCALAR",
            "count": 2604,
            "bufferView": 4,
            "byteOffset": 0
        },
        {
            "componentType": 5126,
            "type": "VEC3",
            "count": 1350,
            "bufferView": 5,
            "byteOffset": 0,
            "min": [
                0.000560444605071098,
                0.000524833216331899,
                -2.99999992421363e-05
            ],
            "max": [
                0.000885931483935565,
                0.00109197816345841,
                2.99999992421363e-05
            ]
        },
        {
            "componentType": 5126,
            "type": "VEC3",
            "count": 1350,
            "bufferView": 6,
            "byteOffset": 0
        },
        {
            "componentType": 5126,
            "type": "VEC2",
            "count": 1350,
            "bufferView": 7,
            "byteOffset": 0
        },
        {
            "componentType": 5123,
            "type": "SCALAR",
            "count": 1584,
            "bufferView": 8,
            "byteOffset": 0
        },
        {
            "componentType": 5126,
            "type": "VEC3",
            "count": 820,
            "bufferView": 9,
            "byteOffset": 0,
            "min": [
                0.00061525497585535,
                0.000403500773245469,
                -4.00000026274938e-05
            ],
            "max": [
                0.000829752360004932,
                0.000994726782664657,
                4.00000026274938e-05
            ]
        },
        {
            "componentType": 5126,
            "type": "VEC3",
            "count": 820,
            "bufferView": 10,
            "byteOffset": 0
        },
        {
            "componentType": 5126,
            "type": "VEC2",
            "count": 820,
            "bufferView": 11,
            "byteOffset": 0
        },
        {
            "componentType": 5123,
            "type": "SCALAR",
            "count": 2208,
            "bufferView": 12,
            "byteOffset": 0
        },
        {
            "componentType": 5126,
            "type": "VEC3",
            "count": 1202,
            "bufferView": 13,
            "byteOffset": 0,
            "min": [
                0.000578800565563142,
                9.87589301075786e-05,
                -2.99999992421363e-05
            ],
            "max": [
                0.000865962356328964,
                0.000361175538273528,
                2.99999992421363e-05
            ]
        },
        {
            "componentType": 5126,
            "type": "VEC3",
            "count": 1202,
            "bufferView": 14,
            "byteOffset": 0
        },
        {
            "componentType": 5126,
            "type": "VEC2",
            "count": 1202,
            "bufferView": 15,
            "byteOffset": 0
        },
        {
            "componentType": 5123,
            "type": "SCALAR",
            "count": 5340,
            "bufferView": 16,
            "byteOffset": 0
        },
        {
            "componentType": 5126,
            "type": "VEC3",
            "count": 2724,
            "bufferView": 17,
            "byteOffset": 0,
            "min": [
                0.000344475876772776,
                0.00023137079551816,
                -2.99999992421363e-05
            ],
            "max": [
                0.00109516957309097,
                0.00135017570573837,
                2.99999992421363e-05
            ]
        },
        {
            "componentType": 5126,
            "type": "VEC3",
            "count": 2724,
            "bufferView": 18,
            "byteOffset": 0
        },
        {
            "componentType": 5126,
            "type": "VEC2",
            "count": 2724,
            "bufferView": 19,
            "byteOffset": 0
        }
    ],
    "samplers": [
        {}
    ],
    "materials": [
        {
            "name": "SVGMat.002",
            "alphaMode": "OPAQUE",
            "extras": {
                "fromFBX": {
                    "shadingModel": "Phong",
                    "isTruePBR": false
                }
            },
            "pbrMetallicRoughness": {
                "baseColorFactor": [
                    0.0,
                    0.0,
                    0.0318960323929787,
                    1.0
                ],
                "metallicFactor": 0.400000005960464,
                "roughnessFactor": 0.229415729641914
            }
        },
        {
            "name": "SVGMat.011",
            "alphaMode": "OPAQUE",
            "extras": {
                "fromFBX": {
                    "shadingModel": "Phong",
                    "isTruePBR": false
                }
            },
            "pbrMetallicRoughness": {
                "baseColorFactor": [
                    0.693871736526489,
                    0.830769896507263,
                    0.982250571250916,
                    1.0
                ],
                "metallicFactor": 0.400000005960464,
                "roughnessFactor": 0.229415729641914
            }
        },
        {
            "name": "SVGMat.012",
            "alphaMode": "OPAQUE",
            "extras": {
                "fromFBX": {
                    "shadingModel": "Phong",
                    "isTruePBR": false
                }
            },
            "pbrMetallicRoughness": {
                "baseColorFactor": [
                    0.205078735947609,
                    0.439657181501389,
                    0.938685715198517,
                    1.0
                ],
                "metallicFactor": 0.400000005960464,
                "roughnessFactor": 0.229415729641914
            }
        },
        {
            "name": "SVGMat.013",
            "alphaMode": "OPAQUE",
            "extras": {
                "fromFBX": {
                    "shadingModel": "Phong",
                    "isTruePBR": false
                }
            },
            "pbrMetallicRoughness": {
                "baseColorFactor": [
                    0.879622399806976,
                    0.701101899147034,
                    0.0561284907162189,
                    1.0
                ],
                "metallicFactor": 0.400000005960464,
                "roughnessFactor": 0.229415729641914
            }
        },
        {
            "name": "SVGMat.015",
            "alphaMode": "OPAQUE",
            "extras": {
                "fromFBX": {
                    "shadingModel": "Phong",
                    "isTruePBR": false
                }
            },
            "pbrMetallicRoughness": {
                "baseColorFactor": [
                    0.905415117740631,
                    0.0278351698070765,
                    0.0454671233892441,
                    1.0
                ],
                "metallicFactor": 0.400000005960464,
                "roughnessFactor": 0.229415729641914
            }
        }
    ],
    "meshes": [
        {
            "name": "path588",
            "primitives": [
                {
                    "material": 0,
                    "mode": 4,
                    "attributes": {
                        "NORMAL": 2,
                        "POSITION": 1,
                        "TEXCOORD_0": 3
                    },
                    "indices": 0
                }
            ]
        },
        {
            "name": "path600",
            "primitives": [
                {
                    "material": 1,
                    "mode": 4,
                    "attributes": {
                        "NORMAL": 6,
                        "POSITION": 5,
                        "TEXCOORD_0": 7
                    },
                    "indices": 4
                }
            ]
        },
        {
            "name": "path598",
            "primitives": [
                {
                    "material": 2,
                    "mode": 4,
                    "attributes": {
                        "NORMAL": 10,
                        "POSITION": 9,
                        "TEXCOORD_0": 11
                    },
                    "indices": 8
                }
            ]
        },
        {
            "name": "path596",
            "primitives": [
                {
                    "material": 3,
                    "mode": 4,
                    "attributes": {
                        "NORMAL": 14,
                        "POSITION": 13,
                        "TEXCOORD_0": 15
                    },
                    "indices": 12
                }
            ]
        },
        {
            "name": "path592",
            "primitives": [
                {
                    "material": 4,
                    "mode": 4,
                    "attributes": {
                        "NORMAL": 18,
                        "POSITION": 17,
                        "TEXCOORD_0": 19
                    },
                    "indices": 16
                }
            ]
        }
    ],
    "nodes": [
        {
            "name": "RootNode",
            "translation": [
                0.0,
                0.0,
                0.0
            ],
            "rotation": [
                0.0,
                0.0,
                0.0,
                1.0
            ],
            "scale": [
                1.0,
                1.0,
                1.0
            ],
            "children": [
                1
            ]
        },
        {
            "name": "path588",
            "translation": [
                0.0,
                0.0,
                0.0
            ],
            "rotation": [
                -1.7112913682822e-15,
                1.0,
                -2.1855694143369e-08,
                -7.54979012640433e-08
            ],
            "scale": [
                8206.93359375,
                8206.93359375,
                8206.93359375
            ],
            "children": [
                2,
                3,
                4,
                5
            ],
            "mesh": 0
        },
        {
            "name": "path600",
            "translation": [
                -0.000711465836502612,
                -0.000611065770499408,
                -3.54877932595699e-11
            ],
            "rotation": [
                5.94867408665323e-08,
                5.3609028327628e-08,
                3.19559596562158e-08,
                1.0
            ],
            "scale": [
                1.00000011920929,
                1.00000011920929,
                1.0
            ],
            "mesh": 1
        },
        {
            "name": "path598",
            "translation": [
                -0.000711465836502612,
                -0.000611065770499408,
                -3.54877932595699e-11
            ],
            "rotation": [
                5.94867408665323e-08,
                5.3609028327628e-08,
                3.19559596562158e-08,
                1.0
            ],
            "scale": [
                1.00000011920929,
                1.00000011920929,
                1.0
            ],
            "mesh": 2
        },
        {
            "name": "path596",
            "translation": [
                -0.000711465836502612,
                -0.000611065770499408,
                -3.54877932595699e-11
            ],
            "rotation": [
                5.94867408665323e-08,
                5.3609028327628e-08,
                3.19559596562158e-08,
                1.0
            ],
            "scale": [
                1.00000011920929,
                1.00000011920929,
                1.0
            ],
            "mesh": 3
        },
        {
            "name": "path592",
            "translation": [
                -0.000711465836502612,
                -0.000611065770499408,
                -3.54877932595699e-11
            ],
            "rotation": [
                5.94867408665323e-08,
                5.3609028327628e-08,
                3.19559596562158e-08,
                1.0
            ],
            "scale": [
                1.00000011920929,
                1.00000011920929,
                1.0
            ],
            "mesh": 4
        }
    ]
}