<svg width="396" height="120" viewBox="0 0 396 120" fill="none" xmlns="http://www.w3.org/2000/svg">
<path d="M37.1329 43.277C35.7283 43.277 34.5896 44.4114 34.5896 45.8108V64.5608C34.5896 65.9602 35.7283 67.0946 37.1329 67.0946H40.6936C42.0983 67.0946 43.237 65.9602 43.237 64.5608V45.8108C43.237 44.4114 42.0983 43.277 40.6936 43.277H37.1329Z" fill="url(#paint0_linear_1021_434)"/>
<path d="M61.0405 45.8108C61.0405 44.4114 62.1792 43.277 63.5838 43.277H67.1445C68.5492 43.277 69.6879 44.4114 69.6879 45.8108V64.5608C69.6879 65.9602 68.5492 67.0946 67.1445 67.0946H63.5838C62.1792 67.0946 61.0405 65.9602 61.0405 64.5608V45.8108Z" fill="url(#paint1_linear_1021_434)"/>
<path fill-rule="evenodd" clip-rule="evenodd" d="M44 97.5C68.3005 97.5 88 77.5459 88 52.9313C88 28.3167 75.5136 22.5 51.2131 22.5C26.9126 22.5 0 28.3167 0 52.9313C0 63.9563 3.95205 74.0462 10.4994 81.827C10.4696 81.9688 10.4584 82.1183 10.4692 82.2733C10.7727 86.6243 10.2901 90.019 8.66208 94.7203C8.2568 95.8907 9.30619 97.0685 10.4954 96.709C15.0204 95.341 18.0949 93.7447 21.239 91.0812C27.8798 95.155 35.6695 97.5 44 97.5ZM44 91.4189C64.8342 91.4189 81.896 74.2831 81.896 52.9313C81.896 41.5633 79.0376 36.2787 75.0933 33.3771C70.6469 30.1061 63.2399 28.5811 51.2131 28.5811C39.3637 28.5811 27.6265 30.0282 19.0709 33.9977C14.867 35.9482 11.6752 38.3959 9.53434 41.351C7.43953 44.2425 6.10405 47.954 6.10405 52.9313C6.10405 74.2831 23.1658 91.4189 44 91.4189Z" fill="url(#paint2_linear_1021_434)"/>
<path d="M136.272 46.912C133.168 46.912 130.544 46.416 128.4 45.424C126.288 44.432 124.672 43.072 123.552 41.344C122.432 39.584 121.872 37.6 121.872 35.392H128.544C128.544 36.32 128.8 37.232 129.312 38.128C129.824 38.992 130.64 39.696 131.76 40.24C132.912 40.784 134.416 41.056 136.272 41.056C137.936 41.056 139.328 40.816 140.448 40.336C141.568 39.856 142.4 39.232 142.944 38.464C143.488 37.664 143.76 36.768 143.76 35.776C143.76 34.528 143.232 33.536 142.176 32.8C141.12 32.032 139.488 31.552 137.28 31.36L134.208 31.12C130.848 30.832 128.16 29.792 126.144 28C124.16 26.176 123.168 23.776 123.168 20.8C123.168 18.56 123.696 16.64 124.752 15.04C125.808 13.408 127.28 12.16 129.168 11.296C131.088 10.4 133.328 9.952 135.888 9.952C138.544 9.952 140.832 10.416 142.752 11.344C144.672 12.272 146.16 13.584 147.216 15.28C148.272 16.944 148.8 18.912 148.8 21.184H142.128C142.128 20.224 141.888 19.344 141.408 18.544C140.96 17.712 140.272 17.056 139.344 16.576C138.448 16.064 137.296 15.808 135.888 15.808C134.544 15.808 133.424 16.032 132.528 16.48C131.632 16.928 130.96 17.536 130.512 18.304C130.064 19.072 129.84 19.904 129.84 20.8C129.84 21.888 130.24 22.848 131.04 23.68C131.84 24.48 133.104 24.944 134.832 25.072L137.904 25.36C140.4 25.552 142.592 26.08 144.48 26.944C146.368 27.808 147.824 28.976 148.848 30.448C149.904 31.92 150.432 33.696 150.432 35.776C150.432 37.984 149.856 39.936 148.704 41.632C147.552 43.296 145.904 44.592 143.76 45.52C141.648 46.448 139.152 46.912 136.272 46.912ZM167.464 46.336C165.064 46.336 163.08 46.032 161.512 45.424C159.976 44.784 158.824 43.728 158.056 42.256C157.288 40.752 156.904 38.736 156.904 36.208L156.952 12.592H163.192L163.144 36.64C163.144 37.92 163.48 38.912 164.152 39.616C164.856 40.288 165.848 40.624 167.128 40.624H171.208V46.336H167.464ZM152.776 24.832V19.936H171.208V24.832H152.776ZM176.808 46V19.936H182.088V30.976H181.944C181.944 27.232 182.744 24.4 184.344 22.48C185.944 20.56 188.296 19.6 191.4 19.6H192.36V25.408H190.536C188.296 25.408 186.552 26.016 185.304 27.232C184.088 28.416 183.48 30.144 183.48 32.416V46H176.808ZM208.3 46.912C206.06 46.912 204.092 46.528 202.396 45.76C200.732 44.992 199.34 43.968 198.22 42.688C197.132 41.376 196.3 39.92 195.724 38.32C195.18 36.72 194.908 35.088 194.908 33.424V32.512C194.908 30.784 195.18 29.12 195.724 27.52C196.3 25.888 197.132 24.448 198.22 23.2C199.34 21.92 200.716 20.912 202.348 20.176C203.98 19.408 205.868 19.024 208.012 19.024C210.828 19.024 213.18 19.648 215.068 20.896C216.988 22.112 218.428 23.728 219.388 25.744C220.348 27.728 220.828 29.872 220.828 32.176V34.576H197.74V30.496H216.652L214.588 32.512C214.588 30.848 214.348 29.424 213.868 28.24C213.388 27.056 212.652 26.144 211.66 25.504C210.7 24.864 209.484 24.544 208.012 24.544C206.54 24.544 205.292 24.88 204.268 25.552C203.244 26.224 202.46 27.2 201.916 28.48C201.404 29.728 201.148 31.232 201.148 32.992C201.148 34.624 201.404 36.08 201.916 37.36C202.428 38.608 203.212 39.6 204.268 40.336C205.324 41.04 206.668 41.392 208.3 41.392C209.932 41.392 211.26 41.072 212.284 40.432C213.308 39.76 213.964 38.944 214.252 37.984H220.396C220.012 39.776 219.276 41.344 218.188 42.688C217.1 44.032 215.708 45.072 214.012 45.808C212.348 46.544 210.444 46.912 208.3 46.912ZM242.193 46V38.272H241.089V29.68C241.089 28.176 240.721 27.056 239.985 26.32C239.249 25.584 238.113 25.216 236.577 25.216C235.777 25.216 234.817 25.232 233.697 25.264C232.577 25.296 231.441 25.344 230.289 25.408C229.169 25.44 228.161 25.488 227.265 25.552V19.888C228.001 19.824 228.833 19.76 229.761 19.696C230.689 19.632 231.633 19.6 232.593 19.6C233.585 19.568 234.513 19.552 235.377 19.552C238.065 19.552 240.289 19.904 242.049 20.608C243.841 21.312 245.185 22.416 246.081 23.92C247.009 25.424 247.473 27.392 247.473 29.824V46H242.193ZM233.793 46.672C231.905 46.672 230.241 46.336 228.801 45.664C227.393 44.992 226.289 44.032 225.489 42.784C224.721 41.536 224.337 40.032 224.337 38.272C224.337 36.352 224.801 34.784 225.729 33.568C226.689 32.352 228.017 31.44 229.713 30.832C231.441 30.224 233.457 29.92 235.761 29.92H241.809V33.904H235.665C234.129 33.904 232.945 34.288 232.113 35.056C231.313 35.792 230.913 36.752 230.913 37.936C230.913 39.12 231.313 40.08 232.113 40.816C232.945 41.552 234.129 41.92 235.665 41.92C236.593 41.92 237.441 41.76 238.209 41.44C239.009 41.088 239.665 40.512 240.177 39.712C240.721 38.88 241.025 37.76 241.089 36.352L242.721 38.224C242.561 40.048 242.113 41.584 241.377 42.832C240.673 44.08 239.681 45.04 238.401 45.712C237.153 46.352 235.617 46.672 233.793 46.672ZM254.62 46V19.936H259.9V31.12H259.42C259.42 28.496 259.756 26.304 260.428 24.544C261.1 22.752 262.092 21.408 263.404 20.512C264.748 19.584 266.412 19.12 268.396 19.12H268.684C270.7 19.12 272.364 19.584 273.676 20.512C275.02 21.408 276.012 22.752 276.652 24.544C277.324 26.304 277.66 28.496 277.66 31.12H275.98C275.98 28.496 276.316 26.304 276.988 24.544C277.692 22.752 278.7 21.408 280.012 20.512C281.356 19.584 283.02 19.12 285.004 19.12H285.292C287.308 19.12 288.988 19.584 290.332 20.512C291.676 21.408 292.684 22.752 293.356 24.544C294.06 26.304 294.412 28.496 294.412 31.12V46H287.74V30.496C287.74 28.864 287.324 27.568 286.492 26.608C285.66 25.616 284.476 25.12 282.94 25.12C281.404 25.12 280.172 25.632 279.244 26.656C278.316 27.648 277.852 28.992 277.852 30.688V46H271.18V30.496C271.18 28.864 270.764 27.568 269.932 26.608C269.1 25.616 267.916 25.12 266.38 25.12C264.844 25.12 263.612 25.632 262.684 26.656C261.756 27.648 261.292 28.992 261.292 30.688V46H254.62ZM139.584 106V98.272H138.48V89.68C138.48 88.176 138.112 87.056 137.376 86.32C136.64 85.584 135.504 85.216 133.968 85.216C133.168 85.216 132.208 85.232 131.088 85.264C129.968 85.296 128.832 85.344 127.68 85.408C126.56 85.44 125.552 85.488 124.656 85.552V79.888C125.392 79.824 126.224 79.76 127.152 79.696C128.08 79.632 129.024 79.6 129.984 79.6C130.976 79.568 131.904 79.552 132.768 79.552C135.456 79.552 137.68 79.904 139.44 80.608C141.232 81.312 142.576 82.416 143.472 83.92C144.4 85.424 144.864 87.392 144.864 89.824V106H139.584ZM131.184 106.672C129.296 106.672 127.632 106.336 126.192 105.664C124.784 104.992 123.68 104.032 122.88 102.784C122.112 101.536 121.728 100.032 121.728 98.272C121.728 96.352 122.192 94.784 123.12 93.568C124.08 92.352 125.408 91.44 127.104 90.832C128.832 90.224 130.848 89.92 133.152 89.92H139.2V93.904H133.056C131.52 93.904 130.336 94.288 129.504 95.056C128.704 95.792 128.304 96.752 128.304 97.936C128.304 99.12 128.704 100.08 129.504 100.816C130.336 101.552 131.52 101.92 133.056 101.92C133.984 101.92 134.832 101.76 135.6 101.44C136.4 101.088 137.056 100.512 137.568 99.712C138.112 98.88 138.416 97.76 138.48 96.352L140.112 98.224C139.952 100.048 139.504 101.584 138.768 102.832C138.064 104.08 137.072 105.04 135.792 105.712C134.544 106.352 133.008 106.672 131.184 106.672ZM161.467 106.816C157.883 106.816 155.067 106.064 153.019 104.56C151.003 103.024 149.947 100.912 149.851 98.224H155.851C155.947 99.12 156.443 99.936 157.339 100.672C158.235 101.408 159.643 101.776 161.563 101.776C163.163 101.776 164.427 101.488 165.355 100.912C166.315 100.336 166.795 99.552 166.795 98.56C166.795 97.696 166.427 97.008 165.691 96.496C164.987 95.984 163.771 95.648 162.043 95.488L159.739 95.248C156.827 94.928 154.587 94.096 153.019 92.752C151.451 91.408 150.667 89.616 150.667 87.376C150.667 85.584 151.115 84.08 152.011 82.864C152.907 81.648 154.139 80.736 155.707 80.128C157.307 79.488 159.131 79.168 161.179 79.168C164.379 79.168 166.971 79.872 168.955 81.28C170.939 82.688 171.979 84.752 172.075 87.472H166.075C166.011 86.576 165.563 85.808 164.731 85.168C163.899 84.528 162.699 84.208 161.131 84.208C159.723 84.208 158.635 84.48 157.867 85.024C157.099 85.568 156.715 86.272 156.715 87.136C156.715 87.968 157.019 88.608 157.627 89.056C158.267 89.504 159.291 89.808 160.699 89.968L163.003 90.208C166.075 90.528 168.475 91.376 170.203 92.752C171.963 94.128 172.843 95.984 172.843 98.32C172.843 100.048 172.363 101.552 171.403 102.832C170.475 104.08 169.163 105.056 167.467 105.76C165.771 106.464 163.771 106.816 161.467 106.816ZM187.811 106.816C184.227 106.816 181.411 106.064 179.363 104.56C177.347 103.024 176.291 100.912 176.195 98.224H182.195C182.291 99.12 182.787 99.936 183.683 100.672C184.579 101.408 185.987 101.776 187.907 101.776C189.507 101.776 190.771 101.488 191.699 100.912C192.659 100.336 193.139 99.552 193.139 98.56C193.139 97.696 192.771 97.008 192.035 96.496C191.331 95.984 190.115 95.648 188.387 95.488L186.083 95.248C183.171 94.928 180.931 94.096 179.363 92.752C177.795 91.408 177.011 89.616 177.011 87.376C177.011 85.584 177.459 84.08 178.355 82.864C179.251 81.648 180.483 80.736 182.051 80.128C183.651 79.488 185.475 79.168 187.523 79.168C190.723 79.168 193.315 79.872 195.299 81.28C197.283 82.688 198.323 84.752 198.419 87.472H192.419C192.355 86.576 191.907 85.808 191.075 85.168C190.243 84.528 189.043 84.208 187.475 84.208C186.067 84.208 184.979 84.48 184.211 85.024C183.443 85.568 183.059 86.272 183.059 87.136C183.059 87.968 183.363 88.608 183.971 89.056C184.611 89.504 185.635 89.808 187.043 89.968L189.347 90.208C192.419 90.528 194.819 91.376 196.547 92.752C198.307 94.128 199.187 95.984 199.187 98.32C199.187 100.048 198.707 101.552 197.747 102.832C196.819 104.08 195.507 105.056 193.811 105.76C192.115 106.464 190.115 106.816 187.811 106.816ZM205.946 106V79.936H212.618V106H205.946ZM202.298 84.928V79.936H212.618V84.928H202.298ZM208.394 76.816C207.082 76.816 206.106 76.48 205.466 75.808C204.858 75.104 204.554 74.24 204.554 73.216C204.554 72.128 204.858 71.248 205.466 70.576C206.106 69.904 207.082 69.568 208.394 69.568C209.706 69.568 210.666 69.904 211.274 70.576C211.882 71.248 212.186 72.128 212.186 73.216C212.186 74.24 211.882 75.104 211.274 75.808C210.666 76.48 209.706 76.816 208.394 76.816ZM229.764 106.816C226.18 106.816 223.364 106.064 221.316 104.56C219.3 103.024 218.244 100.912 218.148 98.224H224.148C224.244 99.12 224.74 99.936 225.636 100.672C226.532 101.408 227.94 101.776 229.86 101.776C231.46 101.776 232.724 101.488 233.652 100.912C234.612 100.336 235.092 99.552 235.092 98.56C235.092 97.696 234.724 97.008 233.988 96.496C233.284 95.984 232.068 95.648 230.34 95.488L228.036 95.248C225.124 94.928 222.884 94.096 221.316 92.752C219.748 91.408 218.964 89.616 218.964 87.376C218.964 85.584 219.412 84.08 220.308 82.864C221.204 81.648 222.436 80.736 224.004 80.128C225.604 79.488 227.428 79.168 229.476 79.168C232.676 79.168 235.268 79.872 237.252 81.28C239.236 82.688 240.276 84.752 240.372 87.472H234.372C234.308 86.576 233.86 85.808 233.028 85.168C232.196 84.528 230.996 84.208 229.428 84.208C228.02 84.208 226.932 84.48 226.164 85.024C225.396 85.568 225.012 86.272 225.012 87.136C225.012 87.968 225.316 88.608 225.924 89.056C226.564 89.504 227.588 89.808 228.996 89.968L231.3 90.208C234.372 90.528 236.772 91.376 238.5 92.752C240.26 94.128 241.14 95.984 241.14 98.32C241.14 100.048 240.66 101.552 239.7 102.832C238.772 104.08 237.46 105.056 235.764 105.76C234.068 106.464 232.068 106.816 229.764 106.816ZM257.979 106.336C255.579 106.336 253.595 106.032 252.027 105.424C250.491 104.784 249.339 103.728 248.571 102.256C247.803 100.752 247.419 98.736 247.419 96.208L247.467 72.592H253.707L253.659 96.64C253.659 97.92 253.995 98.912 254.667 99.616C255.371 100.288 256.363 100.624 257.643 100.624H261.723V106.336H257.979ZM243.291 84.832V79.936H261.723V84.832H243.291ZM283.022 106V98.272H281.918V89.68C281.918 88.176 281.55 87.056 280.814 86.32C280.078 85.584 278.942 85.216 277.406 85.216C276.606 85.216 275.646 85.232 274.526 85.264C273.406 85.296 272.27 85.344 271.118 85.408C269.998 85.44 268.99 85.488 268.094 85.552V79.888C268.83 79.824 269.662 79.76 270.59 79.696C271.518 79.632 272.462 79.6 273.422 79.6C274.414 79.568 275.342 79.552 276.206 79.552C278.894 79.552 281.118 79.904 282.878 80.608C284.67 81.312 286.014 82.416 286.91 83.92C287.838 85.424 288.302 87.392 288.302 89.824V106H283.022ZM274.622 106.672C272.734 106.672 271.07 106.336 269.63 105.664C268.222 104.992 267.118 104.032 266.318 102.784C265.55 101.536 265.166 100.032 265.166 98.272C265.166 96.352 265.63 94.784 266.558 93.568C267.518 92.352 268.846 91.44 270.542 90.832C272.27 90.224 274.286 89.92 276.59 89.92H282.638V93.904H276.494C274.958 93.904 273.774 94.288 272.942 95.056C272.142 95.792 271.742 96.752 271.742 97.936C271.742 99.12 272.142 100.08 272.942 100.816C273.774 101.552 274.958 101.92 276.494 101.92C277.422 101.92 278.27 101.76 279.038 101.44C279.838 101.088 280.494 100.512 281.006 99.712C281.55 98.88 281.854 97.76 281.918 96.352L283.55 98.224C283.39 100.048 282.942 101.584 282.206 102.832C281.502 104.08 280.51 105.04 279.23 105.712C277.982 106.352 276.446 106.672 274.622 106.672ZM295.448 106V79.936H300.728V91.12H300.248C300.248 88.464 300.6 86.256 301.304 84.496C302.008 82.704 303.048 81.36 304.424 80.464C305.832 79.568 307.576 79.12 309.656 79.12H309.944C313.048 79.12 315.4 80.128 317 82.144C318.6 84.128 319.4 87.104 319.4 91.072V106H312.728V90.496C312.728 88.896 312.264 87.6 311.336 86.608C310.44 85.616 309.192 85.12 307.592 85.12C305.96 85.12 304.632 85.632 303.608 86.656C302.616 87.648 302.12 88.992 302.12 90.688V106H295.448ZM337.901 106.336C335.501 106.336 333.517 106.032 331.949 105.424C330.413 104.784 329.261 103.728 328.493 102.256C327.725 100.752 327.341 98.736 327.341 96.208L327.389 72.592H333.629L333.581 96.64C333.581 97.92 333.917 98.912 334.589 99.616C335.293 100.288 336.285 100.624 337.565 100.624H341.645V106.336H337.901ZM323.213 84.832V79.936H341.645V84.832H323.213Z" fill="#F3F4F6"/>
<defs>
<linearGradient id="paint0_linear_1021_434" x1="44" y1="22.5" x2="-16.1667" y2="131.5" gradientUnits="userSpaceOnUse">
<stop stop-color="#D9D9D9"/>
<stop offset="1" stop-color="#988787"/>
</linearGradient>
<linearGradient id="paint1_linear_1021_434" x1="44" y1="22.5" x2="-16.1667" y2="131.5" gradientUnits="userSpaceOnUse">
<stop stop-color="#D9D9D9"/>
<stop offset="1" stop-color="#988787"/>
</linearGradient>
<linearGradient id="paint2_linear_1021_434" x1="44" y1="22.5" x2="-16.1667" y2="131.5" gradientUnits="userSpaceOnUse">
<stop stop-color="#D9D9D9"/>
<stop offset="1" stop-color="#988787"/>
</linearGradient>
</defs>
</svg>
