{
    "asset": {
        "generator": "FBX2glTF v0.9.7",
        "version": "2.0"
    },
    "scene": 0,
    "buffers": [
        {
            "byteLength": 454144,
            "uri": "data:application/octet-stream;base64,"
        }
    ],
    "bufferViews": [
        {
            "buffer": 0,
            "byteLength": 85320,
            "byteOffset": 0,
            "target": 34963
        },
        {
            "buffer": 0,
            "byteLength": 113760,
            "byteOffset": 85320,
            "target": 34962
        },
        {
            "buffer": 0,
            "byteLength": 113760,
            "byteOffset": 199080,
            "target": 34962
        },
        {
            "buffer": 0,
            "byteLength": 75840,
            "byteOffset": 312840,
            "target": 34962
        },
        {
            "buffer": 0,
            "byteLength": 168,
            "byteOffset": 388680,
            "target": 34963
        },
        {
            "buffer": 0,
            "byteLength": 432,
            "byteOffset": 388848,
            "target": 34962
        },
        {
            "buffer": 0,
            "byteLength": 432,
            "byteOffset": 389280,
            "target": 34962
        },
        {
            "buffer": 0,
            "byteLength": 288,
            "byteOffset": 389712,
            "target": 34962
        },
        {
            "buffer": 0,
            "byteLength": 7824,
            "byteOffset": 390000,
            "target": 34963
        },
        {
            "buffer": 0,
            "byteLength": 21120,
            "byteOffset": 397824,
            "target": 34962
        },
        {
            "buffer": 0,
            "byteLength": 21120,
            "byteOffset": 418944,
            "target": 34962
        },
        {
            "buffer": 0,
            "byteLength": 14080,
            "byteOffset": 440064,
            "target": 34962
        }
    ],
    "scenes": [
        {
            "name": "Root Scene",
            "nodes": [
                0
            ]
        }
    ],
    "accessors": [
        {
            "componentType": 5123,
            "type": "SCALAR",
            "count": 42660,
            "bufferView": 0,
            "byteOffset": 0
        },
        {
            "componentType": 5126,
            "type": "VEC3",
            "count": 9480,
            "bufferView": 1,
            "byteOffset": 0,
            "min": [
                -0.000865606707520783,
                -0.000714540248736739,
                -4.50000006821938e-05
            ],
            "max": [
                0.00106886844150722,
                0.0010247741593048,
                4.50000006821938e-05
            ]
        },
        {
            "componentType": 5126,
            "type": "VEC3",
            "count": 9480,
            "bufferView": 2,
            "byteOffset": 0
        },
        {
            "componentType": 5126,
            "type": "VEC2",
            "count": 9480,
            "bufferView": 3,
            "byteOffset": 0
        },
        {
            "componentType": 5123,
            "type": "SCALAR",
            "count": 84,
            "bufferView": 4,
            "byteOffset": 0
        },
        {
            "componentType": 5126,
            "type": "VEC3",
            "count": 36,
            "bufferView": 5,
            "byteOffset": 0,
            "min": [
                0.00022578239440918,
                0.000699777505360544,
                -2.99999992421363e-05
            ],
            "max": [
                0.00170089409220964,
                0.00160271639470011,
                2.99999992421363e-05
            ]
        },
        {
            "componentType": 5126,
            "type": "VEC3",
            "count": 36,
            "bufferView": 6,
            "byteOffset": 0
        },
        {
            "componentType": 5126,
            "type": "VEC2",
            "count": 36,
            "bufferView": 7,
            "byteOffset": 0
        },
        {
            "componentType": 5123,
            "type": "SCALAR",
            "count": 3912,
            "bufferView": 8,
            "byteOffset": 0
        },
        {
            "componentType": 5126,
            "type": "VEC3",
            "count": 1760,
            "bufferView": 9,
            "byteOffset": 0,
            "min": [
                3.76304014935158e-05,
                0.000173063119291328,
                -2.99999992421363e-05
            ],
            "max": [
                0.00184953422285616,
                0.00175335234962404,
                2.99999992421363e-05
            ]
        },
        {
            "componentType": 5126,
            "type": "VEC3",
            "count": 1760,
            "bufferView": 10,
            "byteOffset": 0
        },
        {
            "componentType": 5126,
            "type": "VEC2",
            "count": 1760,
            "bufferView": 11,
            "byteOffset": 0
        }
    ],
    "samplers": [
        {}
    ],
    "materials": [
        {
            "name": "SVGMat.005",
            "alphaMode": "OPAQUE",
            "extras": {
                "fromFBX": {
                    "shadingModel": "Phong",
                    "isTruePBR": false
                }
            },
            "pbrMetallicRoughness": {
                "baseColorFactor": [
                    0.0,
                    0.0,
                    0.0318960323929787,
                    1.0
                ],
                "metallicFactor": 0.400000005960464,
                "roughnessFactor": 0.229415729641914
            }
        },
        {
            "name": "SVGMat.047",
            "alphaMode": "OPAQUE",
            "extras": {
                "fromFBX": {
                    "shadingModel": "Phong",
                    "isTruePBR": false
                }
            },
            "pbrMetallicRoughness": {
                "baseColorFactor": [
                    0.0604454055428505,
                    0.0646281391382217,
                    0.065296471118927,
                    1.0
                ],
                "metallicFactor": 0.400000005960464,
                "roughnessFactor": 0.229415729641914
            }
        },
        {
            "name": "SVGMat.048",
            "alphaMode": "OPAQUE",
            "extras": {
                "fromFBX": {
                    "shadingModel": "Phong",
                    "isTruePBR": false
                }
            },
            "pbrMetallicRoughness": {
                "baseColorFactor": [
                    0.194617837667465,
                    0.219526201486588,
                    0.238397568464279,
                    1.0
                ],
                "metallicFactor": 0.400000005960464,
                "roughnessFactor": 0.229415729641914
            }
        }
    ],
    "meshes": [
        {
            "name": "path485",
            "primitives": [
                {
                    "material": 0,
                    "mode": 4,
                    "attributes": {
                        "NORMAL": 2,
                        "POSITION": 1,
                        "TEXCOORD_0": 3
                    },
                    "indices": 0
                }
            ]
        },
        {
            "name": "path491",
            "primitives": [
                {
                    "material": 1,
                    "mode": 4,
                    "attributes": {
                        "NORMAL": 6,
                        "POSITION": 5,
                        "TEXCOORD_0": 7
                    },
                    "indices": 4
                }
            ]
        },
        {
            "name": "path489",
            "primitives": [
                {
                    "material": 2,
                    "mode": 4,
                    "attributes": {
                        "NORMAL": 10,
                        "POSITION": 9,
                        "TEXCOORD_0": 11
                    },
                    "indices": 8
                }
            ]
        }
    ],
    "nodes": [
        {
            "name": "RootNode",
            "translation": [
                0.0,
                0.0,
                0.0
            ],
            "rotation": [
                0.0,
                0.0,
                0.0,
                1.0
            ],
            "scale": [
                1.0,
                1.0,
                1.0
            ],
            "children": [
                1
            ]
        },
        {
            "name": "path485",
            "translation": [
                0.0,
                0.0,
                0.0
            ],
            "rotation": [
                -1.7112913682822e-15,
                1.0,
                -2.1855694143369e-08,
                -7.54979012640433e-08
            ],
            "scale": [
                3661.41088867188,
                3661.41088867188,
                3661.41088867188
            ],
            "children": [
                2,
                3
            ],
            "mesh": 0
        },
        {
            "name": "path491",
            "translation": [
                -0.000860926695168018,
                -0.000806796131655574,
                -3.99984212418047e-11
            ],
            "rotation": [
                1.72142566867706e-08,
                3.36145546953048e-08,
                1.3023315759142e-08,
                1.0
            ],
            "scale": [
                1.00000011920929,
                1.00000011920929,
                1.0
            ],
            "mesh": 1
        },
        {
            "name": "path489",
            "translation": [
                -0.000860926695168018,
                -0.000806796131655574,
                -3.99984212418047e-11
            ],
            "rotation": [
                1.72142566867706e-08,
                3.36145546953048e-08,
                1.3023315759142e-08,
                1.0
            ],
            "scale": [
                1.00000011920929,
                1.00000011920929,
                1.0
            ],
            "mesh": 2
        }
    ]
}