<svg width="162" height="32" viewBox="0 0 162 32" fill="none" xmlns="http://www.w3.org/2000/svg">
<path d="M9.97613 31.1881C7.30974 31.1881 5.12439 30.606 3.4201 29.4419C1.71581 28.2778 0.684988 26.6147 0.327637 24.4528L5.11065 23.2055C5.30307 24.1756 5.61919 24.9378 6.05901 25.4922C6.52631 26.0465 7.08983 26.4484 7.74956 26.6979C8.43677 26.9196 9.17896 27.0305 9.97613 27.0305C11.1856 27.0305 12.079 26.8226 12.6563 26.4068C13.2335 25.9634 13.5222 25.4229 13.5222 24.7854C13.5222 24.1479 13.2473 23.6628 12.6975 23.3302C12.1477 22.9699 11.2681 22.6789 10.0586 22.4571L8.90407 22.2493C7.47467 21.9721 6.16896 21.5979 4.98695 21.1267C3.80494 20.6278 2.85659 19.9487 2.14188 19.0895C1.42718 18.2303 1.06983 17.1216 1.06983 15.7634C1.06983 13.7124 1.81202 12.1464 3.2964 11.0654C4.78079 9.9567 6.73248 9.40235 9.15147 9.40235C11.433 9.40235 13.3297 9.91512 14.8416 10.9407C16.3535 11.9662 17.3431 13.3105 17.8104 14.9735L12.9861 16.4702C12.7662 15.417 12.3127 14.6686 11.6254 14.2251C10.9657 13.7817 10.1411 13.5599 9.15147 13.5599C8.16188 13.5599 7.40595 13.7401 6.88366 14.1004C6.36138 14.433 6.10024 14.9042 6.10024 15.514C6.10024 16.1792 6.37513 16.6781 6.9249 17.0107C7.47467 17.3156 8.21686 17.5512 9.15147 17.7175L10.306 17.9254C11.8454 18.2026 13.2335 18.5767 14.4705 19.0479C15.735 19.4914 16.7246 20.1428 17.4393 21.002C18.1815 21.8335 18.5526 22.9699 18.5526 24.4112C18.5526 26.5731 17.7691 28.25 16.2023 29.4419C14.6629 30.606 12.5875 31.1881 9.97613 31.1881Z" fill="black"/>
<path d="M30.7746 31.1881C28.7404 31.1881 26.9399 30.7584 25.3731 29.8992C23.8337 29.0123 22.6242 27.7788 21.7446 26.199C20.8924 24.5914 20.4664 22.7066 20.4664 20.5447V20.0457C20.4664 17.8838 20.8924 16.0129 21.7446 14.433C22.5967 12.8254 23.7925 11.592 25.3318 10.7328C26.8712 9.84583 28.658 9.40235 30.6921 9.40235C32.6988 9.40235 34.4443 9.85969 35.9287 10.7744C37.4131 11.6613 38.5676 12.9086 39.3922 14.5162C40.2169 16.0961 40.6292 17.9392 40.6292 20.0457V21.8335H25.7442C25.7991 23.2471 26.3214 24.3973 27.311 25.2843C28.3006 26.1712 29.5101 26.6147 30.9395 26.6147C32.3964 26.6147 33.4685 26.296 34.1557 25.6585C34.8429 25.021 35.3652 24.3142 35.7225 23.5381L39.9695 25.7832C39.5847 26.5039 39.0211 27.2938 38.279 28.153C37.5643 28.9845 36.6022 29.7052 35.3927 30.315C34.1832 30.897 32.6438 31.1881 30.7746 31.1881ZM25.7854 17.9254H35.3514C35.2415 16.7335 34.7604 15.7773 33.9083 15.0567C33.0836 14.336 31.9978 13.9757 30.6509 13.9757C29.249 13.9757 28.1357 14.336 27.311 15.0567C26.4864 15.7773 25.9778 16.7335 25.7854 17.9254Z" fill="black"/>
<path d="M50.7538 30.606C49.4069 30.606 48.3074 30.1902 47.4552 29.3587C46.6305 28.4995 46.2182 27.3631 46.2182 25.9495V14.3083H41.1053V9.98441H46.2182V3.58175H51.4136V9.98441H57.0212V14.3083H51.4136V25.0348C51.4136 25.8664 51.7984 26.2821 52.5681 26.2821H56.5264V30.606H50.7538Z" fill="black"/>
<path d="M72.3621 31.1881C70.5204 31.1881 69.1047 30.8693 68.1151 30.2318C67.1255 29.5943 66.3971 28.8875 65.9298 28.1114H65.1876V30.606H60.0747V1.50296H65.2701V12.3542H66.0123C66.3146 11.8553 66.7132 11.3841 67.208 10.9407C67.7303 10.4972 68.4038 10.1369 69.2284 9.85969C70.0806 9.5548 71.1251 9.40235 72.3621 9.40235C74.0114 9.40235 75.537 9.81811 76.939 10.6496C78.3409 11.4534 79.4679 12.6453 80.3201 14.2251C81.1722 15.805 81.5983 17.7175 81.5983 19.9626V20.6278C81.5983 22.8729 81.1722 24.7854 80.3201 26.3653C79.4679 27.9451 78.3409 29.1508 76.939 29.9824C75.537 30.7862 74.0114 31.1881 72.3621 31.1881ZM70.7953 26.6147C72.3896 26.6147 73.7228 26.102 74.7949 25.0764C75.8669 24.0232 76.4029 22.4987 76.4029 20.5031V20.0873C76.4029 18.0917 75.8669 16.5811 74.7949 15.5556C73.7503 14.5023 72.4171 13.9757 70.7953 13.9757C69.2009 13.9757 67.8677 14.5023 66.7957 15.5556C65.7236 16.5811 65.1876 18.0917 65.1876 20.0873V20.5031C65.1876 22.4987 65.7236 24.0232 66.7957 25.0764C67.8677 26.102 69.2009 26.6147 70.7953 26.6147Z" fill="black"/>
<path d="M84.7194 30.606V9.98441H89.8323V12.3127H90.5745C90.8769 11.4811 91.3717 10.8714 92.0589 10.4833C92.7736 10.0953 93.5982 9.90126 94.5328 9.90126H97.0068V14.5577H94.4504C93.1309 14.5577 92.0451 14.9181 91.193 15.6387C90.3408 16.3316 89.9148 17.4126 89.9148 18.8816V30.606H84.7194Z" fill="black"/>
<path d="M105.285 31.1881C103.828 31.1881 102.522 30.9386 101.368 30.4397C100.213 29.9131 99.2924 29.1647 98.6052 28.1946C97.9455 27.1968 97.6156 25.9911 97.6156 24.5775C97.6156 23.1639 97.9455 21.986 98.6052 21.0436C99.2924 20.0735 100.227 19.3528 101.409 18.8816C102.619 18.3827 103.993 18.1333 105.532 18.1333H111.14V16.9691C111.14 15.999 110.838 15.2091 110.233 14.5993C109.628 13.9618 108.666 13.6431 107.347 13.6431C106.055 13.6431 105.093 13.948 104.46 14.5577C103.828 15.1398 103.416 15.902 103.223 16.8444L98.4403 15.223C98.7702 14.1697 99.2924 13.2135 100.007 12.3542C100.749 11.4673 101.725 10.7605 102.935 10.2339C104.172 9.67953 105.67 9.40235 107.429 9.40235C110.123 9.40235 112.253 10.0814 113.82 11.4396C115.387 12.7977 116.17 14.7656 116.17 17.3433V25.0348C116.17 25.8664 116.555 26.2821 117.325 26.2821H118.974V30.606H115.511C114.494 30.606 113.655 30.3565 112.996 29.8576C112.336 29.3587 112.006 28.6935 112.006 27.862V27.8204H111.222C111.113 28.153 110.865 28.5965 110.48 29.1508C110.095 29.6775 109.491 30.1487 108.666 30.5644C107.841 30.9802 106.714 31.1881 105.285 31.1881ZM106.192 26.9473C107.649 26.9473 108.831 26.5454 109.738 25.7416C110.673 24.9101 111.14 23.8153 111.14 22.4571V22.0414H105.903C104.941 22.0414 104.185 22.2493 103.636 22.665C103.086 23.0808 102.811 23.6628 102.811 24.4112C102.811 25.1596 103.1 25.7693 103.677 26.2405C104.254 26.7117 105.093 26.9473 106.192 26.9473Z" fill="black"/>
<path d="M121.124 30.606V9.98441H126.319V30.606H121.124ZM123.721 7.57302C122.787 7.57302 121.989 7.26813 121.33 6.65835C120.697 6.04858 120.381 5.24478 120.381 4.24696C120.381 3.24914 120.697 2.44534 121.33 1.83557C121.989 1.22579 122.787 0.920898 123.721 0.920898C124.683 0.920898 125.48 1.22579 126.113 1.83557C126.745 2.44534 127.061 3.24914 127.061 4.24696C127.061 5.24478 126.745 6.04858 126.113 6.65835C125.48 7.26813 124.683 7.57302 123.721 7.57302Z" fill="black"/>
<path d="M130.427 30.606V9.98441H135.54V12.6868H136.282C136.612 11.9662 137.23 11.2871 138.137 10.6496C139.044 9.98442 140.419 9.65181 142.261 9.65181C143.855 9.65181 145.243 10.026 146.425 10.7744C147.635 11.495 148.569 12.5067 149.229 13.8094C149.889 15.0844 150.218 16.5811 150.218 18.2996V30.606H145.023V18.7153C145.023 17.1632 144.638 15.999 143.869 15.223C143.126 14.4469 142.054 14.0588 140.652 14.0588C139.058 14.0588 137.821 14.5993 136.942 15.6803C136.062 16.7335 135.622 18.2164 135.622 20.1289V30.606H130.427Z" fill="black"/>
<path d="M157.443 31.1881C156.343 31.1881 155.409 30.8277 154.639 30.1071C153.897 29.3587 153.526 28.4025 153.526 27.2384C153.526 26.0742 153.897 25.1319 154.639 24.4112C155.409 23.6628 156.343 23.2887 157.443 23.2887C158.57 23.2887 159.505 23.6628 160.247 24.4112C160.989 25.1319 161.36 26.0742 161.36 27.2384C161.36 28.4025 160.989 29.3587 160.247 30.1071C159.505 30.8277 158.57 31.1881 157.443 31.1881Z" fill="black"/>
</svg>
