<svg width="326" height="69" viewBox="0 0 326 69" fill="none" xmlns="http://www.w3.org/2000/svg">
<path d="M64.808 67H50.216L38.456 19.096H40.664L28.856 67H14.216L0.2 3.64H13.928L22.328 51.256H22.184L34.76 3.64H44.312L56.936 51.256H56.744L65.192 3.64H78.92L64.808 67ZM88.5568 67V27.592H100.701V67H88.5568ZM94.7968 17.416C92.7808 17.416 91.0688 16.712 89.6608 15.304C88.2848 13.896 87.5968 12.216 87.5968 10.264C87.5968 8.312 88.3008 6.616 89.7088 5.17599C91.1168 3.736 92.8128 3.016 94.7968 3.016C96.1088 3.016 97.3088 3.352 98.3968 4.024C99.4848 4.664 100.365 5.528 101.037 6.616C101.709 7.704 102.045 8.92 102.045 10.264C102.045 12.216 101.325 13.896 99.8848 15.304C98.4768 16.712 96.7808 17.416 94.7968 17.416ZM132.095 58.456C134.175 58.456 135.871 58.104 137.183 57.4C138.495 56.696 139.359 56.168 139.775 55.816L145.439 64.216C144.991 64.568 144.159 65.064 142.943 65.704C141.727 66.344 140.175 66.904 138.287 67.384C136.431 67.896 134.303 68.152 131.903 68.152C127.743 68.152 124.015 67.32 120.719 65.656C117.423 63.96 114.815 61.56 112.895 58.456C111.007 55.32 110.063 51.592 110.063 47.272C110.063 42.92 111.007 39.192 112.895 36.088C114.815 32.984 117.423 30.6 120.719 28.936C124.015 27.272 127.743 26.44 131.903 26.44C134.271 26.44 136.367 26.696 138.191 27.208C140.047 27.72 141.599 28.312 142.847 28.984C144.095 29.624 144.959 30.152 145.439 30.568L139.631 39.016C139.407 38.76 138.975 38.408 138.335 37.96C137.695 37.512 136.847 37.096 135.791 36.712C134.767 36.328 133.535 36.136 132.095 36.136C130.335 36.136 128.655 36.6 127.055 37.528C125.487 38.456 124.207 39.752 123.215 41.416C122.223 43.08 121.727 45.032 121.727 47.272C121.727 49.512 122.223 51.48 123.215 53.176C124.207 54.84 125.487 56.136 127.055 57.064C128.655 57.992 130.335 58.456 132.095 58.456ZM164.627 67H152.387V0.951998H164.627V67ZM205.987 67V60.136C205.699 60.84 204.963 61.832 203.779 63.112C202.595 64.392 200.995 65.56 198.979 66.616C196.995 67.64 194.659 68.152 191.971 68.152C188.195 68.152 184.851 67.256 181.939 65.464C179.027 63.64 176.739 61.16 175.075 58.024C173.443 54.856 172.627 51.288 172.627 47.32C172.627 43.352 173.443 39.8 175.075 36.664C176.739 33.496 179.027 31 181.939 29.176C184.851 27.352 188.195 26.44 191.971 26.44C194.595 26.44 196.866 26.888 198.786 27.784C200.739 28.648 202.307 29.672 203.491 30.856C204.707 32.008 205.491 33.048 205.843 33.976V27.592H217.939V67H205.987ZM184.579 47.32C184.579 49.528 185.075 51.48 186.067 53.176C187.059 54.84 188.371 56.136 190.003 57.064C191.635 57.992 193.411 58.456 195.331 58.456C197.347 58.456 199.139 57.992 200.707 57.064C202.275 56.104 203.507 54.792 204.403 53.128C205.331 51.432 205.795 49.496 205.795 47.32C205.795 45.144 205.331 43.224 204.403 41.56C203.507 39.864 202.275 38.536 200.707 37.576C199.139 36.616 197.347 36.136 195.331 36.136C193.411 36.136 191.635 36.616 190.003 37.576C188.371 38.504 187.059 39.816 186.067 41.512C185.075 43.176 184.579 45.112 184.579 47.32ZM244.507 26.44C246.875 26.44 249.067 26.664 251.083 27.112C253.099 27.528 254.795 28.008 256.171 28.552C257.579 29.096 258.507 29.56 258.955 29.944L254.779 37.288C254.139 36.776 252.987 36.168 251.323 35.464C249.691 34.76 247.867 34.408 245.851 34.408C244.027 34.408 242.491 34.728 241.243 35.368C239.995 35.976 239.371 36.904 239.371 38.152C239.371 39.4 240.043 40.392 241.387 41.128C242.731 41.864 244.603 42.504 247.003 43.048C249.019 43.464 251.003 44.104 252.955 44.968C254.907 45.8 256.523 47.016 257.803 48.616C259.083 50.184 259.723 52.28 259.723 54.904C259.723 57.496 259.163 59.656 258.043 61.384C256.955 63.08 255.499 64.424 253.675 65.416C251.851 66.408 249.851 67.112 247.675 67.528C245.499 67.944 243.339 68.152 241.195 68.152C238.411 68.152 235.963 67.88 233.851 67.336C231.739 66.824 229.995 66.232 228.619 65.56C227.275 64.856 226.315 64.264 225.739 63.784L229.915 55.624C230.747 56.36 232.107 57.176 233.995 58.072C235.915 58.936 237.979 59.368 240.187 59.368C242.491 59.368 244.299 58.968 245.611 58.168C246.955 57.368 247.627 56.296 247.627 54.952C247.627 53.96 247.307 53.16 246.667 52.552C246.027 51.912 245.147 51.384 244.027 50.968C242.907 50.552 241.595 50.184 240.091 49.864C238.715 49.576 237.307 49.16 235.867 48.616C234.427 48.04 233.083 47.288 231.835 46.36C230.587 45.432 229.579 44.28 228.811 42.904C228.043 41.496 227.659 39.816 227.659 37.864C227.659 35.368 228.459 33.288 230.059 31.624C231.659 29.928 233.739 28.648 236.299 27.784C238.859 26.888 241.595 26.44 244.507 26.44ZM284.82 26.44C287.188 26.44 289.38 26.664 291.396 27.112C293.412 27.528 295.108 28.008 296.484 28.552C297.892 29.096 298.82 29.56 299.268 29.944L295.092 37.288C294.452 36.776 293.3 36.168 291.636 35.464C290.004 34.76 288.18 34.408 286.164 34.408C284.34 34.408 282.804 34.728 281.556 35.368C280.308 35.976 279.684 36.904 279.684 38.152C279.684 39.4 280.356 40.392 281.7 41.128C283.044 41.864 284.916 42.504 287.316 43.048C289.332 43.464 291.316 44.104 293.268 44.968C295.22 45.8 296.836 47.016 298.116 48.616C299.396 50.184 300.036 52.28 300.036 54.904C300.036 57.496 299.476 59.656 298.356 61.384C297.268 63.08 295.812 64.424 293.988 65.416C292.164 66.408 290.164 67.112 287.988 67.528C285.812 67.944 283.652 68.152 281.508 68.152C278.724 68.152 276.276 67.88 274.164 67.336C272.052 66.824 270.308 66.232 268.932 65.56C267.588 64.856 266.628 64.264 266.052 63.784L270.228 55.624C271.06 56.36 272.42 57.176 274.308 58.072C276.228 58.936 278.292 59.368 280.5 59.368C282.804 59.368 284.612 58.968 285.924 58.168C287.268 57.368 287.94 56.296 287.94 54.952C287.94 53.96 287.62 53.16 286.98 52.552C286.34 51.912 285.46 51.384 284.34 50.968C283.22 50.552 281.908 50.184 280.404 49.864C279.028 49.576 277.62 49.16 276.18 48.616C274.74 48.04 273.396 47.288 272.148 46.36C270.9 45.432 269.892 44.28 269.124 42.904C268.356 41.496 267.972 39.816 267.972 37.864C267.972 35.368 268.772 33.288 270.372 31.624C271.972 29.928 274.052 28.648 276.612 27.784C279.172 26.888 281.908 26.44 284.82 26.44ZM318.028 68.152C315.884 68.152 314.044 67.384 312.508 65.848C310.972 64.312 310.204 62.472 310.204 60.328C310.204 58.12 310.972 56.248 312.508 54.712C314.044 53.176 315.884 52.408 318.028 52.408C320.236 52.408 322.092 53.176 323.596 54.712C325.132 56.248 325.9 58.12 325.9 60.328C325.9 62.472 325.132 64.312 323.596 65.848C322.092 67.384 320.236 68.152 318.028 68.152Z" fill="#F3F4F6"/>
</svg>
